<svg width="195" height="29" viewBox="0 0 195 29" fill="none" xmlns="http://www.w3.org/2000/svg">
<path id="goals-q4-text.inline" d="M19.9911 17.787V10.313C19.9911 4.578 16.4391 0.729999 10.2231 0.729999C4.00715 0.729999 0.455149 4.578 0.455149 10.313V17.787C0.455149 23.522 4.00715 27.37 10.2231 27.37C12.0361 27.37 13.6641 27.037 14.9961 26.408L17.1791 28.665L20.5461 25.372L18.5482 23.337C19.5101 21.82 19.9911 19.933 19.9911 17.787ZM12.2951 16.862L8.92815 20.155L11.1111 22.375C10.8151 22.449 10.5191 22.449 10.2231 22.449C7.52215 22.449 5.41315 20.784 5.41315 17.787V10.313C5.41315 7.316 7.52215 5.651 10.2231 5.651C12.9241 5.651 15.0331 7.316 15.0331 10.313V17.787C15.0331 18.379 14.9221 18.934 14.7741 19.415L12.2951 16.862ZM40.7834 21.117V16.788H38.0824V1.1H33.1984L22.0244 16.788V21.117H33.1984V27H38.0824V21.117H40.7834ZM27.6854 16.788L33.1984 9.055V16.788H27.6854ZM68.5146 6.021V1.1H48.9786V6.021H56.1936V27H61.2996V6.021H68.5146ZM81.26 17.084H75.488L78.374 8.685L81.26 17.084ZM82.962 21.783L84.812 27H89.992L80.742 1.1H76.006L66.756 27H71.936L73.786 21.783H82.962ZM100.351 16.344L106.604 27H112.302L105.864 16.085C109.49 15.234 111.451 12.57 111.451 8.722C111.451 4.06 108.528 1.1 103.274 1.1H92.3591V27H97.3171V16.344H100.351ZM106.493 8.796C106.493 10.572 105.272 11.534 103.385 11.534H97.3171V6.021H103.385C105.272 6.021 106.493 6.983 106.493 8.796ZM124.114 17.121H128.924V17.787C128.924 20.784 126.815 22.449 124.114 22.449C121.413 22.449 119.304 20.784 119.304 17.787V10.313C119.304 7.316 121.413 5.651 124.114 5.651C126.482 5.651 128.406 6.946 128.85 9.277H133.845C133.438 4.134 129.96 0.729999 124.114 0.729999C117.898 0.729999 114.346 4.578 114.346 10.313V17.787C114.346 23.522 117.898 27.37 124.114 27.37C130.33 27.37 133.882 23.522 133.882 17.787V12.2H124.114V17.121ZM142.808 6.021H153.612V1.1H137.85V27H153.612V22.079H142.808V16.381H153.612V11.46H142.808V6.021ZM174.926 6.021V1.1H155.39V6.021H162.605V27H167.711V6.021H174.926ZM185.515 27.37C191.139 27.37 194.173 24.521 194.173 19.859C194.173 15.493 192.027 13.051 188.031 11.978L183.813 10.831C182.407 10.461 181.223 9.795 181.223 8.278C181.223 6.465 182.703 5.651 184.775 5.651C186.44 5.651 188.253 6.428 188.697 8.167H193.803C193.248 3.764 190.029 0.729999 184.849 0.729999C180.335 0.729999 176.265 3.098 176.265 8.278C176.265 12.089 178.226 14.864 182.185 15.937L186.551 17.121C188.364 17.602 189.215 18.416 189.215 19.859C189.215 21.635 187.698 22.449 185.515 22.449C183.036 22.449 181.334 21.006 181.038 18.823H175.932C176.191 23.966 179.854 27.37 185.515 27.37Z" fill="white"/>
</svg>
