<svg width="996" height="829" viewBox="0 0 996 829" fill="none" xmlns="http://www.w3.org/2000/svg">
<g id="pixels.inline">
<rect id="Rectangle" width="165" height="166" transform="matrix(-1 0 0 1 498 663)" fill="#B66BD9" fill-opacity="0.97"/>
<rect id="Rectangle_2" width="167" height="166" transform="matrix(-1 0 0 1 333 663)" fill="#C167E3"/>
<rect id="Rectangle_3" width="167" height="165" transform="matrix(-1 0 0 1 333 498)" fill="#C173DF" fill-opacity="0.98"/>
<rect id="Rectangle_4" width="167" height="167" transform="matrix(-1 0 0 1 333 331)" fill="#BB6BD9" fill-opacity="0.92"/>
<rect id="Rectangle_5" width="166" height="167" transform="matrix(-1 0 0 1 166 331)" fill="#BB6BD9" fill-opacity="0.88"/>
<rect id="Rectangle_6" width="166" height="165" transform="matrix(-1 0 0 1 166 498)" fill="#BB6BD9" fill-opacity="0.99"/>
<rect id="Rectangle_7" width="166" height="166" transform="matrix(-1 0 0 1 166 663)" fill="#C46CE5"/>
<rect id="Rectangle_8" width="166" height="166" transform="matrix(-1 0 0 1 664 663)" fill="#BB6BD9" fill-opacity="0.92"/>
<rect id="Rectangle_9" width="165" height="166" transform="matrix(-1 0 0 1 829 663)" fill="#BB6BD9" fill-opacity="0.87"/>
<rect id="Rectangle_10" width="167" height="166" transform="matrix(-1 0 0 1 996 663)" fill="#BB6BD9" fill-opacity="0.67"/>
<rect id="Rectangle_11" width="165" height="165" transform="matrix(-1 0 0 1 498 498)" fill="#BB6BD9" fill-opacity="0.93"/>
<rect id="Rectangle_12" width="165" height="167" transform="matrix(-1 0 0 1 498 331)" fill="#BB6BD9" fill-opacity="0.77"/>
<rect id="Rectangle_13" width="167" height="165" transform="matrix(-1 0 0 1 333 166)" fill="#BB6BD9" fill-opacity="0.88"/>
<rect id="Rectangle_14" width="166" height="165" transform="matrix(-1 0 0 1 664 498)" fill="#BB6BD9" fill-opacity="0.78"/>
<rect id="Rectangle_15" width="165" height="165" transform="matrix(-1 0 0 1 498 166)" fill="#BB6BD9" fill-opacity="0.62"/>
<rect id="Rectangle_16" width="167" height="166" transform="matrix(-1 0 0 1 333 0)" fill="#BB6BD9" fill-opacity="0.79"/>
<rect id="Rectangle_17" width="166" height="165" transform="matrix(-1 0 0 1 166 166)" fill="#BB6BD9" fill-opacity="0.82"/>
</g>
</svg>
