<svg width="960" height="557" viewBox="0 0 960 557" fill="none" xmlns="http://www.w3.org/2000/svg">
<g id="template-template.inline">
<path id="1" d="M155.551 492.288V501H126.319V492.288H136.543V470.472C136.111 471.048 135.415 471.648 134.455 472.272C133.543 472.848 132.535 473.4 131.431 473.928C130.327 474.456 129.175 474.888 127.975 475.224C126.823 475.56 125.791 475.728 124.879 475.728V466.728C125.743 466.728 126.799 466.464 128.047 465.936C129.295 465.36 130.519 464.688 131.719 463.92C132.919 463.152 133.951 462.408 134.815 461.688C135.727 460.92 136.303 460.32 136.543 459.888H146.407V492.288H155.551Z" fill="#BFBFBF"/>
<path id="2" d="M497.895 501H462.809V494.039L479.367 476.391C481.641 473.906 483.316 471.738 484.395 469.887C485.496 468.035 486.047 466.277 486.047 464.613C486.047 462.34 485.473 460.559 484.324 459.27C483.176 457.957 481.535 457.301 479.402 457.301C477.105 457.301 475.289 458.098 473.953 459.691C472.641 461.262 471.984 463.336 471.984 465.914H461.789C461.789 462.797 462.527 459.949 464.004 457.371C465.504 454.793 467.613 452.777 470.332 451.324C473.051 449.848 476.133 449.109 479.578 449.109C484.852 449.109 488.941 450.375 491.848 452.906C494.777 455.438 496.242 459.012 496.242 463.629C496.242 466.16 495.586 468.738 494.273 471.363C492.961 473.988 490.711 477.047 487.523 480.539L475.887 492.809H497.895V501Z" fill="#BFBFBF"/>
<path id="3" d="M827.858 484.008C830.834 484.536 833.234 485.976 835.058 488.328C836.93 490.632 837.866 493.464 837.866 496.824C837.866 499.08 837.41 501.12 836.498 502.944C835.634 504.768 834.386 506.304 832.754 507.552C831.17 508.848 829.226 509.832 826.922 510.504C824.618 511.224 822.026 511.584 819.146 511.584C815.498 511.584 812.258 510.984 809.426 509.784C806.642 508.632 804.314 506.928 802.442 504.672L807.914 497.832C809.162 499.416 810.65 500.64 812.378 501.504C814.106 502.368 816.266 502.8 818.858 502.8C821.786 502.8 824.018 502.224 825.554 501.072C827.09 499.92 827.858 498.144 827.858 495.744C827.858 493.248 826.97 491.328 825.194 489.984C823.418 488.64 820.73 487.968 817.13 487.968H815.114V480.768H817.346C820.322 480.768 822.626 480.12 824.258 478.824C825.89 477.48 826.706 475.776 826.706 473.712C826.706 471.744 826.034 470.28 824.69 469.32C823.346 468.36 821.594 467.88 819.434 467.88C817.226 467.88 815.234 468.384 813.458 469.392C811.73 470.4 810.314 471.816 809.21 473.64L803.162 466.872C803.882 465.768 804.842 464.784 806.042 463.92C807.242 463.008 808.586 462.24 810.074 461.616C811.61 460.944 813.266 460.44 815.042 460.104C816.818 459.72 818.642 459.528 820.514 459.528C822.962 459.528 825.194 459.84 827.21 460.464C829.226 461.088 830.954 461.952 832.394 463.056C833.882 464.16 835.01 465.504 835.778 467.088C836.594 468.624 837.002 470.352 837.002 472.272C837.002 473.712 836.786 475.08 836.354 476.376C835.922 477.672 835.298 478.848 834.482 479.904C833.666 480.96 832.682 481.848 831.53 482.568C830.426 483.288 829.202 483.768 827.858 484.008Z" fill="#BFBFBF"/>
<path id="This is how unique we are:" d="M379.023 348.398H374.937V359H372.471V348.398H368.385V346.22H379.023V348.398ZM389.141 359H386.729V353.708C386.729 352.964 386.591 352.418 386.315 352.07C386.039 351.71 385.649 351.53 385.145 351.53C384.929 351.53 384.701 351.578 384.461 351.674C384.221 351.77 383.993 351.908 383.777 352.088C383.561 352.256 383.363 352.46 383.183 352.7C383.003 352.94 382.871 353.204 382.787 353.492V359H380.375V345.86H382.787V351.314C383.135 350.702 383.603 350.234 384.191 349.91C384.791 349.574 385.451 349.406 386.171 349.406C386.783 349.406 387.281 349.514 387.665 349.73C388.049 349.934 388.349 350.21 388.565 350.558C388.781 350.906 388.931 351.302 389.015 351.746C389.099 352.19 389.141 352.646 389.141 353.114V359ZM391.239 359V349.568H393.651V359H391.239ZM391.239 348.254V345.86H393.651V348.254H391.239ZM399.391 359.18C398.599 359.18 397.825 359.054 397.069 358.802C396.313 358.55 395.665 358.19 395.125 357.722L396.025 356.21C396.601 356.618 397.159 356.93 397.699 357.146C398.251 357.35 398.797 357.452 399.337 357.452C399.817 357.452 400.195 357.362 400.471 357.182C400.747 357.002 400.885 356.744 400.885 356.408C400.885 356.072 400.723 355.826 400.399 355.67C400.075 355.514 399.547 355.334 398.815 355.13C398.203 354.962 397.681 354.8 397.249 354.644C396.817 354.488 396.469 354.314 396.205 354.122C395.941 353.918 395.749 353.69 395.629 353.438C395.509 353.174 395.449 352.862 395.449 352.502C395.449 352.022 395.539 351.59 395.719 351.206C395.911 350.822 396.175 350.498 396.511 350.234C396.847 349.958 397.237 349.748 397.681 349.604C398.137 349.46 398.629 349.388 399.157 349.388C399.865 349.388 400.525 349.49 401.137 349.694C401.761 349.898 402.331 350.228 402.847 350.684L401.875 352.142C401.395 351.782 400.927 351.518 400.471 351.35C400.027 351.182 399.583 351.098 399.139 351.098C398.731 351.098 398.389 351.182 398.113 351.35C397.837 351.518 397.699 351.788 397.699 352.16C397.699 352.328 397.729 352.466 397.789 352.574C397.861 352.682 397.969 352.778 398.113 352.862C398.257 352.946 398.443 353.03 398.671 353.114C398.911 353.186 399.205 353.264 399.553 353.348C400.201 353.516 400.753 353.684 401.209 353.852C401.677 354.02 402.055 354.212 402.343 354.428C402.643 354.644 402.859 354.896 402.991 355.184C403.135 355.46 403.207 355.796 403.207 356.192C403.207 357.116 402.865 357.848 402.181 358.388C401.497 358.916 400.567 359.18 399.391 359.18ZM409.098 359V349.568H411.51V359H409.098ZM409.098 348.254V345.86H411.51V348.254H409.098ZM417.25 359.18C416.458 359.18 415.684 359.054 414.928 358.802C414.172 358.55 413.524 358.19 412.984 357.722L413.884 356.21C414.46 356.618 415.018 356.93 415.558 357.146C416.11 357.35 416.656 357.452 417.196 357.452C417.676 357.452 418.054 357.362 418.33 357.182C418.606 357.002 418.744 356.744 418.744 356.408C418.744 356.072 418.582 355.826 418.258 355.67C417.934 355.514 417.406 355.334 416.674 355.13C416.062 354.962 415.54 354.8 415.108 354.644C414.676 354.488 414.328 354.314 414.064 354.122C413.8 353.918 413.608 353.69 413.488 353.438C413.368 353.174 413.308 352.862 413.308 352.502C413.308 352.022 413.398 351.59 413.578 351.206C413.77 350.822 414.034 350.498 414.37 350.234C414.706 349.958 415.096 349.748 415.54 349.604C415.996 349.46 416.488 349.388 417.016 349.388C417.724 349.388 418.384 349.49 418.996 349.694C419.62 349.898 420.19 350.228 420.706 350.684L419.734 352.142C419.254 351.782 418.786 351.518 418.33 351.35C417.886 351.182 417.442 351.098 416.998 351.098C416.59 351.098 416.248 351.182 415.972 351.35C415.696 351.518 415.558 351.788 415.558 352.16C415.558 352.328 415.588 352.466 415.648 352.574C415.72 352.682 415.828 352.778 415.972 352.862C416.116 352.946 416.302 353.03 416.53 353.114C416.77 353.186 417.064 353.264 417.412 353.348C418.06 353.516 418.612 353.684 419.068 353.852C419.536 354.02 419.914 354.212 420.202 354.428C420.502 354.644 420.718 354.896 420.85 355.184C420.994 355.46 421.066 355.796 421.066 356.192C421.066 357.116 420.724 357.848 420.04 358.388C419.356 358.916 418.426 359.18 417.25 359.18ZM435.723 359H433.311V353.708C433.311 352.964 433.173 352.418 432.897 352.07C432.621 351.71 432.231 351.53 431.727 351.53C431.511 351.53 431.283 351.578 431.043 351.674C430.803 351.77 430.575 351.908 430.359 352.088C430.143 352.256 429.945 352.46 429.765 352.7C429.585 352.94 429.453 353.204 429.369 353.492V359H426.957V345.86H429.369V351.314C429.717 350.702 430.185 350.234 430.773 349.91C431.373 349.574 432.033 349.406 432.753 349.406C433.365 349.406 433.863 349.514 434.247 349.73C434.631 349.934 434.931 350.21 435.147 350.558C435.363 350.906 435.513 351.302 435.597 351.746C435.681 352.19 435.723 352.646 435.723 353.114V359ZM442.177 359.18C441.409 359.18 440.719 359.048 440.107 358.784C439.495 358.52 438.973 358.166 438.541 357.722C438.121 357.266 437.797 356.744 437.569 356.156C437.341 355.568 437.227 354.95 437.227 354.302C437.227 353.642 437.341 353.018 437.569 352.43C437.797 351.842 438.121 351.326 438.541 350.882C438.973 350.426 439.495 350.066 440.107 349.802C440.719 349.538 441.409 349.406 442.177 349.406C442.945 349.406 443.629 349.538 444.229 349.802C444.841 350.066 445.357 350.426 445.777 350.882C446.209 351.326 446.539 351.842 446.767 352.43C446.995 353.018 447.109 353.642 447.109 354.302C447.109 354.95 446.995 355.568 446.767 356.156C446.539 356.744 446.215 357.266 445.795 357.722C445.375 358.166 444.859 358.52 444.247 358.784C443.635 359.048 442.945 359.18 442.177 359.18ZM439.711 354.302C439.711 354.722 439.771 355.106 439.891 355.454C440.023 355.79 440.197 356.084 440.413 356.336C440.641 356.588 440.905 356.786 441.205 356.93C441.505 357.062 441.829 357.128 442.177 357.128C442.525 357.128 442.849 357.062 443.149 356.93C443.449 356.786 443.707 356.588 443.923 356.336C444.151 356.084 444.325 355.784 444.445 355.436C444.577 355.088 444.643 354.704 444.643 354.284C444.643 353.876 444.577 353.498 444.445 353.15C444.325 352.802 444.151 352.502 443.923 352.25C443.707 351.998 443.449 351.806 443.149 351.674C442.849 351.53 442.525 351.458 442.177 351.458C441.829 351.458 441.505 351.53 441.205 351.674C440.905 351.818 440.641 352.016 440.413 352.268C440.197 352.52 440.023 352.82 439.891 353.168C439.771 353.516 439.711 353.894 439.711 354.302ZM460.103 349.568H462.389L458.447 359H456.467L454.847 354.86L453.245 359H451.265L447.341 349.568H449.609L452.417 356.732L453.569 353.672L451.913 349.586H453.857L454.847 352.484L455.855 349.586H457.799L456.161 353.672L457.295 356.732L460.103 349.568ZM470.214 359.18C469.242 359.18 468.504 358.868 468 358.244C467.496 357.62 467.244 356.696 467.244 355.472V349.568H469.656V354.95C469.656 356.402 470.178 357.128 471.222 357.128C471.69 357.128 472.14 356.99 472.572 356.714C473.016 356.426 473.376 355.994 473.652 355.418V349.568H476.064V356.228C476.064 356.48 476.106 356.66 476.19 356.768C476.286 356.876 476.436 356.936 476.64 356.948V359C476.4 359.048 476.196 359.078 476.028 359.09C475.872 359.102 475.728 359.108 475.596 359.108C475.164 359.108 474.81 359.012 474.534 358.82C474.27 358.616 474.114 358.34 474.066 357.992L474.012 357.236C473.592 357.884 473.052 358.37 472.392 358.694C471.732 359.018 471.006 359.18 470.214 359.18ZM487.227 359H484.815V353.708C484.815 352.952 484.683 352.4 484.419 352.052C484.155 351.704 483.789 351.53 483.321 351.53C483.081 351.53 482.835 351.578 482.583 351.674C482.331 351.77 482.091 351.908 481.863 352.088C481.647 352.256 481.449 352.46 481.269 352.7C481.089 352.94 480.957 353.204 480.873 353.492V359H478.461V349.568H480.639V351.314C480.987 350.714 481.491 350.246 482.151 349.91C482.811 349.574 483.555 349.406 484.383 349.406C484.971 349.406 485.451 349.514 485.823 349.73C486.195 349.946 486.483 350.228 486.687 350.576C486.891 350.924 487.029 351.32 487.101 351.764C487.185 352.208 487.227 352.658 487.227 353.114V359ZM489.325 359V349.568H491.737V359H489.325ZM489.325 348.254V345.86H491.737V348.254H489.325ZM497.476 359.18C496.876 359.18 496.324 359.054 495.82 358.802C495.316 358.538 494.878 358.184 494.506 357.74C494.146 357.296 493.864 356.78 493.66 356.192C493.456 355.592 493.354 354.95 493.354 354.266C493.354 353.582 493.462 352.946 493.678 352.358C493.906 351.77 494.218 351.26 494.614 350.828C495.01 350.384 495.478 350.036 496.018 349.784C496.558 349.532 497.14 349.406 497.764 349.406C498.484 349.406 499.12 349.574 499.672 349.91C500.224 350.234 500.674 350.666 501.022 351.206V349.568H503.128V359.936C503.128 360.2 503.176 360.38 503.272 360.476C503.368 360.584 503.536 360.644 503.776 360.656V362.708C503.572 362.744 503.35 362.768 503.11 362.78C502.87 362.804 502.654 362.816 502.462 362.816C502.222 362.816 501.994 362.774 501.778 362.69C501.574 362.606 501.394 362.492 501.238 362.348C501.082 362.204 500.956 362.03 500.86 361.826C500.764 361.634 500.716 361.418 500.716 361.178V357.344C500.368 357.956 499.918 358.418 499.366 358.73C498.814 359.03 498.184 359.18 497.476 359.18ZM498.376 357.128C498.892 357.128 499.342 356.984 499.726 356.696C500.11 356.408 500.44 356.036 500.716 355.58V353.348C500.644 353.084 500.524 352.838 500.356 352.61C500.2 352.382 500.014 352.184 499.798 352.016C499.582 351.836 499.348 351.698 499.096 351.602C498.844 351.506 498.592 351.458 498.34 351.458C497.968 351.458 497.626 351.536 497.314 351.692C497.014 351.848 496.75 352.064 496.522 352.34C496.306 352.604 496.132 352.91 496 353.258C495.88 353.606 495.82 353.966 495.82 354.338C495.82 354.734 495.88 355.1 496 355.436C496.132 355.772 496.306 356.066 496.522 356.318C496.75 356.57 497.02 356.768 497.332 356.912C497.644 357.056 497.992 357.128 498.376 357.128ZM508.201 359.18C507.229 359.18 506.491 358.868 505.987 358.244C505.483 357.62 505.231 356.696 505.231 355.472V349.568H507.643V354.95C507.643 356.402 508.165 357.128 509.209 357.128C509.677 357.128 510.127 356.99 510.559 356.714C511.003 356.426 511.363 355.994 511.639 355.418V349.568H514.051V356.228C514.051 356.48 514.093 356.66 514.177 356.768C514.273 356.876 514.423 356.936 514.627 356.948V359C514.387 359.048 514.183 359.078 514.015 359.09C513.859 359.102 513.715 359.108 513.583 359.108C513.151 359.108 512.797 359.012 512.521 358.82C512.257 358.616 512.101 358.34 512.053 357.992L511.999 357.236C511.579 357.884 511.039 358.37 510.379 358.694C509.719 359.018 508.993 359.18 508.201 359.18ZM520.822 359.18C520.066 359.18 519.382 359.054 518.77 358.802C518.158 358.538 517.636 358.184 517.204 357.74C516.772 357.296 516.436 356.78 516.196 356.192C515.968 355.604 515.854 354.986 515.854 354.338C515.854 353.666 515.968 353.036 516.196 352.448C516.424 351.848 516.754 351.326 517.186 350.882C517.618 350.426 518.14 350.066 518.752 349.802C519.376 349.538 520.072 349.406 520.84 349.406C521.608 349.406 522.292 349.538 522.892 349.802C523.504 350.066 524.02 350.42 524.44 350.864C524.872 351.308 525.196 351.824 525.412 352.412C525.64 353 525.754 353.612 525.754 354.248C525.754 354.404 525.748 354.554 525.736 354.698C525.736 354.842 525.724 354.962 525.7 355.058H518.41C518.446 355.43 518.536 355.76 518.68 356.048C518.824 356.336 519.01 356.582 519.238 356.786C519.466 356.99 519.724 357.146 520.012 357.254C520.3 357.362 520.6 357.416 520.912 357.416C521.392 357.416 521.842 357.302 522.262 357.074C522.694 356.834 522.988 356.522 523.144 356.138L525.214 356.714C524.866 357.434 524.308 358.028 523.54 358.496C522.784 358.952 521.878 359.18 520.822 359.18ZM523.27 353.492C523.21 352.784 522.946 352.22 522.478 351.8C522.022 351.368 521.464 351.152 520.804 351.152C520.48 351.152 520.174 351.212 519.886 351.332C519.61 351.44 519.364 351.596 519.148 351.8C518.932 352.004 518.752 352.25 518.608 352.538C518.476 352.826 518.398 353.144 518.374 353.492H523.27ZM542.755 349.568H545.041L541.099 359H539.119L537.499 354.86L535.897 359H533.917L529.993 349.568H532.261L535.069 356.732L536.221 353.672L534.565 349.586H536.509L537.499 352.484L538.507 349.586H540.451L538.813 353.672L539.947 356.732L542.755 349.568ZM550.195 359.18C549.439 359.18 548.755 359.054 548.143 358.802C547.531 358.538 547.009 358.184 546.577 357.74C546.145 357.296 545.809 356.78 545.569 356.192C545.341 355.604 545.227 354.986 545.227 354.338C545.227 353.666 545.341 353.036 545.569 352.448C545.797 351.848 546.127 351.326 546.559 350.882C546.991 350.426 547.513 350.066 548.125 349.802C548.749 349.538 549.445 349.406 550.213 349.406C550.981 349.406 551.665 349.538 552.265 349.802C552.877 350.066 553.393 350.42 553.813 350.864C554.245 351.308 554.569 351.824 554.785 352.412C555.013 353 555.127 353.612 555.127 354.248C555.127 354.404 555.121 354.554 555.109 354.698C555.109 354.842 555.097 354.962 555.073 355.058H547.783C547.819 355.43 547.909 355.76 548.053 356.048C548.197 356.336 548.383 356.582 548.611 356.786C548.839 356.99 549.097 357.146 549.385 357.254C549.673 357.362 549.973 357.416 550.285 357.416C550.765 357.416 551.215 357.302 551.635 357.074C552.067 356.834 552.361 356.522 552.517 356.138L554.587 356.714C554.239 357.434 553.681 358.028 552.913 358.496C552.157 358.952 551.251 359.18 550.195 359.18ZM552.643 353.492C552.583 352.784 552.319 352.22 551.851 351.8C551.395 351.368 550.837 351.152 550.177 351.152C549.853 351.152 549.547 351.212 549.259 351.332C548.983 351.44 548.737 351.596 548.521 351.8C548.305 352.004 548.125 352.25 547.981 352.538C547.849 352.826 547.771 353.144 547.747 353.492H552.643ZM563.494 359.18C563.038 359.18 562.612 359.108 562.216 358.964C561.82 358.808 561.478 358.598 561.19 358.334C560.902 358.058 560.674 357.74 560.506 357.38C560.35 357.02 560.272 356.624 560.272 356.192C560.272 355.748 560.368 355.34 560.56 354.968C560.764 354.584 561.04 354.26 561.388 353.996C561.748 353.732 562.174 353.528 562.666 353.384C563.158 353.228 563.698 353.15 564.286 353.15C564.706 353.15 565.114 353.186 565.51 353.258C565.918 353.33 566.278 353.432 566.59 353.564V353.024C566.59 352.4 566.41 351.92 566.05 351.584C565.702 351.248 565.18 351.08 564.484 351.08C563.98 351.08 563.488 351.17 563.008 351.35C562.528 351.53 562.036 351.794 561.532 352.142L560.794 350.612C562.006 349.808 563.314 349.406 564.718 349.406C566.074 349.406 567.124 349.742 567.868 350.414C568.624 351.074 569.002 352.034 569.002 353.294V356.228C569.002 356.48 569.044 356.66 569.128 356.768C569.224 356.876 569.374 356.936 569.578 356.948V359C569.17 359.084 568.816 359.126 568.516 359.126C568.06 359.126 567.706 359.024 567.454 358.82C567.214 358.616 567.064 358.346 567.004 358.01L566.95 357.488C566.53 358.04 566.02 358.46 565.42 358.748C564.82 359.036 564.178 359.18 563.494 359.18ZM564.178 357.416C564.586 357.416 564.97 357.344 565.33 357.2C565.702 357.056 565.99 356.864 566.194 356.624C566.458 356.42 566.59 356.192 566.59 355.94V354.86C566.302 354.752 565.99 354.668 565.654 354.608C565.318 354.536 564.994 354.5 564.682 354.5C564.058 354.5 563.548 354.644 563.152 354.932C562.756 355.208 562.558 355.562 562.558 355.994C562.558 356.402 562.714 356.744 563.026 357.02C563.338 357.284 563.722 357.416 564.178 357.416ZM576.872 351.656C576.14 351.668 575.486 351.812 574.91 352.088C574.334 352.352 573.92 352.754 573.668 353.294V359H571.256V349.568H573.47V351.584C573.638 351.26 573.836 350.972 574.064 350.72C574.292 350.456 574.538 350.228 574.802 350.036C575.066 349.844 575.33 349.7 575.594 349.604C575.87 349.496 576.134 349.442 576.386 349.442C576.518 349.442 576.614 349.442 576.674 349.442C576.746 349.442 576.812 349.448 576.872 349.46V351.656ZM582.117 359.18C581.361 359.18 580.677 359.054 580.065 358.802C579.453 358.538 578.931 358.184 578.499 357.74C578.067 357.296 577.731 356.78 577.491 356.192C577.263 355.604 577.149 354.986 577.149 354.338C577.149 353.666 577.263 353.036 577.491 352.448C577.719 351.848 578.049 351.326 578.481 350.882C578.913 350.426 579.435 350.066 580.047 349.802C580.671 349.538 581.367 349.406 582.135 349.406C582.903 349.406 583.587 349.538 584.187 349.802C584.799 350.066 585.315 350.42 585.735 350.864C586.167 351.308 586.491 351.824 586.707 352.412C586.935 353 587.049 353.612 587.049 354.248C587.049 354.404 587.043 354.554 587.031 354.698C587.031 354.842 587.019 354.962 586.995 355.058H579.705C579.741 355.43 579.831 355.76 579.975 356.048C580.119 356.336 580.305 356.582 580.533 356.786C580.761 356.99 581.019 357.146 581.307 357.254C581.595 357.362 581.895 357.416 582.207 357.416C582.687 357.416 583.137 357.302 583.557 357.074C583.989 356.834 584.283 356.522 584.439 356.138L586.509 356.714C586.161 357.434 585.603 358.028 584.835 358.496C584.079 358.952 583.173 359.18 582.117 359.18ZM584.565 353.492C584.505 352.784 584.241 352.22 583.773 351.8C583.317 351.368 582.759 351.152 582.099 351.152C581.775 351.152 581.469 351.212 581.181 351.332C580.905 351.44 580.659 351.596 580.443 351.8C580.227 352.004 580.047 352.25 579.903 352.538C579.771 352.826 579.693 353.144 579.669 353.492H584.565ZM588.662 352.268V349.676H590.624V352.268H588.662ZM588.662 359V356.408H590.624V359H588.662Z" fill="#BFBFBF"/>
<path id="Rectangle" d="M2 396H277M2 396V555M2 396L277 555M277 396V555M277 396L2 555M277 555H2" stroke="#BFBFBF" stroke-width="3"/>
<path id="Rectangle_2" d="M342 396H618M342 396V555M342 396L618 555M618 396V555M618 396L342 555M618 555H342" stroke="#BFBFBF" stroke-width="3"/>
<path id="Rectangle_3" d="M683 396H958M683 396V555M683 396L958 555M958 396V555M958 396L683 555M958 555H683" stroke="#BFBFBF" stroke-width="3"/>
<path id="WE&#226;&#128;&#153;RE UNIQUE" d="M238.14 167.024H247.284L253.044 183.944L258.804 167.024H268.02L259.308 190.28L265.788 206.624L280.26 166.88H291.06L270.252 218H261.9L253.044 196.544L244.188 218H235.836L215.172 166.88H225.828L240.372 206.624L246.708 190.28L238.14 167.024ZM331.793 209.288V218H296.297V166.88H331.145V175.592H306.233V187.904H327.761V195.968H306.233V209.288H331.793ZM339.251 183.512L340.835 174.728H337.955V165.008H347.675V174.872L345.083 183.512H339.251ZM356.625 218V166.88H379.233C381.585 166.88 383.745 167.384 385.713 168.392C387.729 169.352 389.457 170.648 390.897 172.28C392.337 173.864 393.465 175.688 394.281 177.752C395.097 179.768 395.505 181.808 395.505 183.872C395.505 187.184 394.665 190.208 392.985 192.944C391.353 195.632 389.121 197.576 386.289 198.776L397.953 218H386.793L376.353 200.864H366.561V218H356.625ZM366.561 192.152H379.017C379.929 192.152 380.769 191.936 381.537 191.504C382.353 191.072 383.049 190.496 383.625 189.776C384.201 189.008 384.657 188.12 384.993 187.112C385.329 186.104 385.497 185.024 385.497 183.872C385.497 182.672 385.305 181.568 384.921 180.56C384.537 179.552 384.009 178.688 383.337 177.968C382.713 177.2 381.969 176.624 381.105 176.24C380.289 175.808 379.449 175.592 378.585 175.592H366.561V192.152ZM440.004 209.288V218H404.508V166.88H439.356V175.592H414.444V187.904H435.972V195.968H414.444V209.288H440.004ZM486.647 209.576C488.999 209.576 490.967 209.096 492.551 208.136C494.183 207.176 495.479 205.928 496.439 204.392C497.447 202.856 498.143 201.104 498.527 199.136C498.959 197.12 499.175 195.056 499.175 192.944V166.88H509.039V192.944C509.039 196.448 508.607 199.736 507.743 202.808C506.927 205.88 505.607 208.568 503.783 210.872C502.007 213.176 499.703 215 496.871 216.344C494.039 217.688 490.655 218.36 486.719 218.36C482.639 218.36 479.159 217.664 476.279 216.272C473.447 214.832 471.143 212.96 469.367 210.656C467.591 208.304 466.295 205.592 465.479 202.52C464.711 199.448 464.327 196.256 464.327 192.944V166.88H474.263V192.944C474.263 195.104 474.455 197.192 474.839 199.208C475.271 201.176 475.967 202.928 476.927 204.464C477.935 206 479.231 207.248 480.815 208.208C482.399 209.12 484.343 209.576 486.647 209.576ZM528.983 185.24V218H519.047V166.88H526.751L553.391 200.432V166.952H563.327V218H555.263L528.983 185.24ZM573.961 218V166.88H583.897V218H573.961ZM629.338 214.688C627.466 215.84 625.45 216.752 623.29 217.424C621.13 218.048 618.826 218.36 616.378 218.36C612.634 218.36 609.226 217.616 606.154 216.128C603.13 214.64 600.514 212.696 598.306 210.296C596.146 207.896 594.466 205.136 593.266 202.016C592.066 198.896 591.466 195.704 591.466 192.44C591.466 189.032 592.09 185.768 593.338 182.648C594.634 179.528 596.386 176.768 598.594 174.368C600.85 171.968 603.514 170.072 606.586 168.68C609.658 167.24 612.994 166.52 616.594 166.52C620.29 166.52 623.65 167.288 626.674 168.824C629.746 170.312 632.362 172.28 634.522 174.728C636.682 177.176 638.362 179.96 639.562 183.08C640.762 186.2 641.362 189.368 641.362 192.584C641.362 195.896 640.762 199.064 639.562 202.088C638.41 205.112 636.778 207.8 634.666 210.152L641.65 218H632.29L629.338 214.688ZM616.45 209.576C617.746 209.576 618.946 209.432 620.05 209.144C621.202 208.808 622.258 208.376 623.218 207.848L615.442 199.064H624.802L628.33 203.024C629.29 201.488 630.034 199.808 630.562 197.984C631.09 196.16 631.354 194.312 631.354 192.44C631.354 190.232 630.994 188.096 630.274 186.032C629.602 183.968 628.618 182.144 627.322 180.56C626.074 178.976 624.514 177.704 622.642 176.744C620.818 175.784 618.754 175.304 616.45 175.304C614.05 175.304 611.914 175.808 610.042 176.816C608.17 177.776 606.61 179.072 605.362 180.704C604.114 182.336 603.154 184.184 602.482 186.248C601.858 188.264 601.546 190.328 601.546 192.44C601.546 194.648 601.882 196.784 602.554 198.848C603.226 200.912 604.186 202.736 605.434 204.32C606.73 205.904 608.29 207.176 610.114 208.136C611.986 209.096 614.098 209.576 616.45 209.576ZM670.514 209.576C672.866 209.576 674.834 209.096 676.418 208.136C678.05 207.176 679.346 205.928 680.306 204.392C681.314 202.856 682.01 201.104 682.394 199.136C682.826 197.12 683.042 195.056 683.042 192.944V166.88H692.906V192.944C692.906 196.448 692.474 199.736 691.61 202.808C690.794 205.88 689.474 208.568 687.65 210.872C685.874 213.176 683.57 215 680.738 216.344C677.906 217.688 674.522 218.36 670.586 218.36C666.506 218.36 663.026 217.664 660.146 216.272C657.314 214.832 655.01 212.96 653.234 210.656C651.458 208.304 650.162 205.592 649.346 202.52C648.578 199.448 648.194 196.256 648.194 192.944V166.88H658.13V192.944C658.13 195.104 658.322 197.192 658.706 199.208C659.138 201.176 659.834 202.928 660.794 204.464C661.802 206 663.098 207.248 664.682 208.208C666.266 209.12 668.21 209.576 670.514 209.576ZM738.41 209.288V218H702.914V166.88H737.762V175.592H712.85V187.904H734.378V195.968H712.85V209.288H738.41Z" fill="#BFBFBF"/>
<path id="Rectangle_4" d="M2 70H958M2 70V315M2 70L958 315M958 70V315M958 70L2 315M958 315H2" stroke="#BFBFBF" stroke-width="3"/>
<path id="OUR WEBSITE" d="M15.572 40.18C13.7 40.18 11.996 39.82 10.46 39.1C8.948 38.356 7.64 37.384 6.536 36.184C5.456 34.96 4.616 33.568 4.016 32.008C3.416 30.448 3.116 28.852 3.116 27.22C3.116 25.516 3.428 23.884 4.052 22.324C4.7 20.764 5.576 19.384 6.68 18.184C7.808 16.984 9.14 16.036 10.676 15.34C12.212 14.62 13.88 14.26 15.68 14.26C17.528 14.26 19.208 14.644 20.72 15.412C22.256 16.156 23.564 17.14 24.644 18.364C25.724 19.588 26.564 20.98 27.164 22.54C27.764 24.1 28.064 25.684 28.064 27.292C28.064 28.996 27.752 30.628 27.128 32.188C26.504 33.724 25.64 35.092 24.536 36.292C23.432 37.468 22.112 38.416 20.576 39.136C19.04 39.832 17.372 40.18 15.572 40.18ZM8.156 27.22C8.156 28.324 8.324 29.392 8.66 30.424C8.996 31.456 9.476 32.368 10.1 33.16C10.748 33.952 11.528 34.588 12.44 35.068C13.376 35.548 14.432 35.788 15.608 35.788C16.808 35.788 17.864 35.548 18.776 35.068C19.712 34.564 20.492 33.904 21.116 33.088C21.764 32.272 22.244 31.36 22.556 30.352C22.892 29.32 23.06 28.276 23.06 27.22C23.06 26.116 22.88 25.048 22.52 24.016C22.184 22.984 21.692 22.072 21.044 21.28C20.42 20.488 19.64 19.864 18.704 19.408C17.792 18.928 16.76 18.688 15.608 18.688C14.408 18.688 13.34 18.94 12.404 19.444C11.468 19.924 10.688 20.572 10.064 21.388C9.44 22.18 8.96 23.092 8.624 24.124C8.312 25.132 8.156 26.164 8.156 27.22ZM42.6749 35.788C43.8509 35.788 44.8349 35.548 45.6269 35.068C46.4429 34.588 47.0909 33.964 47.5709 33.196C48.0749 32.428 48.4229 31.552 48.6149 30.568C48.8309 29.56 48.9389 28.528 48.9389 27.472V14.44H53.8709V27.472C53.8709 29.224 53.6549 30.868 53.2229 32.404C52.8149 33.94 52.1549 35.284 51.2429 36.436C50.3549 37.588 49.2029 38.5 47.7869 39.172C46.3709 39.844 44.6789 40.18 42.7109 40.18C40.6709 40.18 38.9309 39.832 37.4909 39.136C36.0749 38.416 34.9229 37.48 34.0349 36.328C33.1469 35.152 32.4989 33.796 32.0909 32.26C31.7069 30.724 31.5149 29.128 31.5149 27.472V14.44H36.4829V27.472C36.4829 28.552 36.5789 29.596 36.7709 30.604C36.9869 31.588 37.3349 32.464 37.8149 33.232C38.3189 34 38.9669 34.624 39.7589 35.104C40.5509 35.56 41.5229 35.788 42.6749 35.788ZM58.8749 40V14.44H70.1789C71.3549 14.44 72.4349 14.692 73.4189 15.196C74.4269 15.676 75.2909 16.324 76.0109 17.14C76.7309 17.932 77.2949 18.844 77.7029 19.876C78.1109 20.884 78.3149 21.904 78.3149 22.936C78.3149 24.592 77.8949 26.104 77.0549 27.472C76.2389 28.816 75.1229 29.788 73.7069 30.388L79.5389 40H73.9589L68.7389 31.432H63.8429V40H58.8749ZM63.8429 27.076H70.0709C70.5269 27.076 70.9469 26.968 71.3309 26.752C71.7389 26.536 72.0869 26.248 72.3749 25.888C72.6629 25.504 72.8909 25.06 73.0589 24.556C73.2269 24.052 73.3109 23.512 73.3109 22.936C73.3109 22.336 73.2149 21.784 73.0229 21.28C72.8309 20.776 72.5669 20.344 72.2309 19.984C71.9189 19.6 71.5469 19.312 71.1149 19.12C70.7069 18.904 70.2869 18.796 69.8549 18.796H63.8429V27.076ZM99.0543 14.512H103.626L106.506 22.972L109.386 14.512H113.994L109.638 26.14L112.878 34.312L120.114 14.44H125.514L115.11 40H110.934L106.506 29.272L102.078 40H97.9023L87.5703 14.44H92.8983L100.17 34.312L103.338 26.14L99.0543 14.512ZM145.881 35.644V40H128.133V14.44H145.557V18.796H133.101V24.952H143.865V28.984H133.101V35.644H145.881ZM170.346 33.412C170.346 34.492 170.13 35.44 169.698 36.256C169.266 37.072 168.666 37.756 167.898 38.308C167.154 38.86 166.278 39.28 165.27 39.568C164.286 39.856 163.23 40 162.102 40H149.754V14.44H163.434C164.322 14.44 165.126 14.632 165.846 15.016C166.566 15.4 167.178 15.904 167.682 16.528C168.186 17.128 168.57 17.824 168.834 18.616C169.122 19.384 169.266 20.164 169.266 20.956C169.266 22.204 168.954 23.38 168.33 24.484C167.706 25.564 166.794 26.368 165.594 26.896C167.058 27.328 168.21 28.108 169.05 29.236C169.914 30.34 170.346 31.732 170.346 33.412ZM165.342 32.476C165.342 32.02 165.258 31.588 165.09 31.18C164.946 30.748 164.742 30.376 164.478 30.064C164.214 29.752 163.902 29.512 163.542 29.344C163.182 29.152 162.786 29.056 162.354 29.056H154.722V35.788H162.102C162.558 35.788 162.978 35.704 163.362 35.536C163.77 35.368 164.118 35.14 164.406 34.852C164.694 34.54 164.922 34.18 165.09 33.772C165.258 33.364 165.342 32.932 165.342 32.476ZM154.722 18.688V25.132H161.346C162.186 25.132 162.894 24.844 163.47 24.268C164.07 23.692 164.37 22.9 164.37 21.892C164.37 20.908 164.094 20.128 163.542 19.552C163.014 18.976 162.354 18.688 161.562 18.688H154.722ZM189.451 21.136C189.283 20.968 188.971 20.74 188.515 20.452C188.083 20.164 187.543 19.888 186.895 19.624C186.271 19.336 185.587 19.096 184.843 18.904C184.099 18.712 183.343 18.616 182.575 18.616C181.207 18.616 180.187 18.868 179.515 19.372C178.843 19.876 178.507 20.584 178.507 21.496C178.507 22.024 178.627 22.468 178.867 22.828C179.131 23.164 179.503 23.464 179.983 23.728C180.463 23.992 181.063 24.232 181.783 24.448C182.527 24.664 183.379 24.892 184.339 25.132C185.587 25.468 186.715 25.828 187.723 26.212C188.755 26.596 189.619 27.076 190.315 27.652C191.035 28.228 191.587 28.924 191.971 29.74C192.355 30.532 192.547 31.516 192.547 32.692C192.547 34.06 192.283 35.236 191.755 36.22C191.251 37.18 190.555 37.96 189.667 38.56C188.803 39.16 187.795 39.604 186.643 39.892C185.515 40.156 184.327 40.288 183.079 40.288C181.159 40.288 179.263 40 177.391 39.424C175.519 38.848 173.839 38.032 172.351 36.976L174.547 32.692C174.763 32.908 175.147 33.196 175.699 33.556C176.275 33.892 176.947 34.24 177.715 34.6C178.483 34.936 179.335 35.224 180.271 35.464C181.207 35.704 182.167 35.824 183.151 35.824C185.887 35.824 187.255 34.948 187.255 33.196C187.255 32.644 187.099 32.176 186.787 31.792C186.475 31.408 186.031 31.072 185.455 30.784C184.879 30.496 184.183 30.232 183.367 29.992C182.551 29.752 181.639 29.488 180.631 29.2C179.407 28.864 178.339 28.504 177.427 28.12C176.539 27.712 175.795 27.244 175.195 26.716C174.595 26.164 174.139 25.54 173.827 24.844C173.539 24.124 173.395 23.272 173.395 22.288C173.395 20.992 173.635 19.84 174.115 18.832C174.595 17.824 175.255 16.984 176.095 16.312C176.959 15.64 177.955 15.136 179.083 14.8C180.211 14.44 181.423 14.26 182.719 14.26C184.519 14.26 186.175 14.548 187.687 15.124C189.199 15.676 190.519 16.336 191.647 17.104L189.451 21.136ZM196.301 40V14.44H201.269V40H196.301ZM225.718 18.796H217.546V40H212.614V18.796H204.442V14.44H225.718V18.796ZM246.639 35.644V40H228.891V14.44H246.315V18.796H233.859V24.952H244.623V28.984H233.859V35.644H246.639Z" fill="#BFBFBF"/>
<path id="Home | Contact | About" d="M679.846 18.96V36H676.558V28.728H668.83V36H665.518V18.96H668.83V25.848H676.558V18.96H679.846ZM688.733 36.24C687.709 36.24 686.789 36.064 685.973 35.712C685.157 35.36 684.461 34.888 683.885 34.296C683.325 33.688 682.893 32.992 682.589 32.208C682.285 31.424 682.133 30.6 682.133 29.736C682.133 28.856 682.285 28.024 682.589 27.24C682.893 26.456 683.325 25.768 683.885 25.176C684.461 24.568 685.157 24.088 685.973 23.736C686.789 23.384 687.709 23.208 688.733 23.208C689.757 23.208 690.669 23.384 691.469 23.736C692.285 24.088 692.973 24.568 693.533 25.176C694.109 25.768 694.549 26.456 694.853 27.24C695.157 28.024 695.309 28.856 695.309 29.736C695.309 30.6 695.157 31.424 694.853 32.208C694.549 32.992 694.117 33.688 693.557 34.296C692.997 34.888 692.309 35.36 691.493 35.712C690.677 36.064 689.757 36.24 688.733 36.24ZM685.445 29.736C685.445 30.296 685.525 30.808 685.685 31.272C685.861 31.72 686.093 32.112 686.381 32.448C686.685 32.784 687.037 33.048 687.437 33.24C687.837 33.416 688.269 33.504 688.733 33.504C689.197 33.504 689.629 33.416 690.029 33.24C690.429 33.048 690.773 32.784 691.061 32.448C691.365 32.112 691.597 31.712 691.757 31.248C691.933 30.784 692.021 30.272 692.021 29.712C692.021 29.168 691.933 28.664 691.757 28.2C691.597 27.736 691.365 27.336 691.061 27C690.773 26.664 690.429 26.408 690.029 26.232C689.629 26.04 689.197 25.944 688.733 25.944C688.269 25.944 687.837 26.04 687.437 26.232C687.037 26.424 686.685 26.688 686.381 27.024C686.093 27.36 685.861 27.76 685.685 28.224C685.525 28.688 685.445 29.192 685.445 29.736ZM717.016 36H713.8V28.944C713.8 27.936 713.624 27.2 713.272 26.736C712.936 26.272 712.464 26.04 711.856 26.04C711.216 26.04 710.616 26.288 710.056 26.784C709.496 27.264 709.096 27.896 708.856 28.68V36H705.64V28.944C705.64 27.936 705.464 27.2 705.112 26.736C704.776 26.272 704.304 26.04 703.696 26.04C703.072 26.04 702.472 26.28 701.896 26.76C701.336 27.24 700.936 27.872 700.696 28.656V36H697.48V23.424H700.384V25.752C700.848 24.936 701.48 24.312 702.28 23.88C703.096 23.432 704.024 23.208 705.064 23.208C706.12 23.208 706.936 23.464 707.512 23.976C708.088 24.488 708.456 25.12 708.616 25.872C709.128 25.008 709.776 24.352 710.56 23.904C711.344 23.44 712.24 23.208 713.248 23.208C714.016 23.208 714.648 23.352 715.144 23.64C715.64 23.928 716.024 24.304 716.296 24.768C716.568 25.232 716.752 25.76 716.848 26.352C716.96 26.944 717.016 27.544 717.016 28.152V36ZM725.648 36.24C724.64 36.24 723.728 36.072 722.912 35.736C722.096 35.384 721.4 34.912 720.824 34.32C720.248 33.728 719.8 33.04 719.48 32.256C719.176 31.472 719.024 30.648 719.024 29.784C719.024 28.888 719.176 28.048 719.48 27.264C719.784 26.464 720.224 25.768 720.8 25.176C721.376 24.568 722.072 24.088 722.888 23.736C723.72 23.384 724.648 23.208 725.672 23.208C726.696 23.208 727.608 23.384 728.408 23.736C729.224 24.088 729.912 24.56 730.472 25.152C731.048 25.744 731.48 26.432 731.768 27.216C732.072 28 732.224 28.816 732.224 29.664C732.224 29.872 732.216 30.072 732.2 30.264C732.2 30.456 732.184 30.616 732.152 30.744H722.432C722.48 31.24 722.6 31.68 722.792 32.064C722.984 32.448 723.232 32.776 723.536 33.048C723.84 33.32 724.184 33.528 724.568 33.672C724.952 33.816 725.352 33.888 725.768 33.888C726.408 33.888 727.008 33.736 727.568 33.432C728.144 33.112 728.536 32.696 728.744 32.184L731.504 32.952C731.04 33.912 730.296 34.704 729.272 35.328C728.264 35.936 727.056 36.24 725.648 36.24ZM728.912 28.656C728.832 27.712 728.48 26.96 727.856 26.4C727.248 25.824 726.504 25.536 725.624 25.536C725.192 25.536 724.784 25.616 724.4 25.776C724.032 25.92 723.704 26.128 723.416 26.4C723.128 26.672 722.888 27 722.696 27.384C722.52 27.768 722.416 28.192 722.384 28.656H728.912ZM746.146 39.12V17.4H748.882V39.12H746.146ZM763.064 27.36C763.064 26.32 763.248 25.296 763.616 24.288C764 23.264 764.552 22.352 765.272 21.552C765.992 20.752 766.872 20.104 767.912 19.608C768.952 19.112 770.136 18.864 771.464 18.864C773.032 18.864 774.384 19.208 775.52 19.896C776.672 20.584 777.528 21.48 778.088 22.584L775.544 24.336C775.32 23.856 775.048 23.456 774.728 23.136C774.408 22.8 774.064 22.536 773.696 22.344C773.328 22.152 772.944 22.016 772.544 21.936C772.144 21.84 771.752 21.792 771.368 21.792C770.536 21.792 769.808 21.96 769.184 22.296C768.576 22.632 768.064 23.072 767.648 23.616C767.248 24.144 766.944 24.752 766.736 25.44C766.528 26.112 766.424 26.784 766.424 27.456C766.424 28.208 766.544 28.936 766.784 29.64C767.024 30.328 767.36 30.936 767.792 31.464C768.24 31.992 768.768 32.416 769.376 32.736C770 33.056 770.68 33.216 771.416 33.216C771.8 33.216 772.2 33.168 772.616 33.072C773.032 32.976 773.424 32.824 773.792 32.616C774.176 32.408 774.528 32.144 774.848 31.824C775.168 31.488 775.424 31.088 775.616 30.624L778.328 32.184C778.056 32.824 777.664 33.392 777.152 33.888C776.656 34.368 776.088 34.776 775.448 35.112C774.824 35.448 774.152 35.704 773.432 35.88C772.712 36.056 772.008 36.144 771.32 36.144C770.104 36.144 768.992 35.888 767.984 35.376C766.976 34.864 766.104 34.2 765.368 33.384C764.648 32.552 764.08 31.616 763.664 30.576C763.264 29.52 763.064 28.448 763.064 27.36ZM786.045 36.24C785.021 36.24 784.101 36.064 783.285 35.712C782.469 35.36 781.773 34.888 781.197 34.296C780.637 33.688 780.205 32.992 779.901 32.208C779.597 31.424 779.445 30.6 779.445 29.736C779.445 28.856 779.597 28.024 779.901 27.24C780.205 26.456 780.637 25.768 781.197 25.176C781.773 24.568 782.469 24.088 783.285 23.736C784.101 23.384 785.021 23.208 786.045 23.208C787.069 23.208 787.981 23.384 788.781 23.736C789.597 24.088 790.285 24.568 790.845 25.176C791.421 25.768 791.861 26.456 792.165 27.24C792.469 28.024 792.621 28.856 792.621 29.736C792.621 30.6 792.469 31.424 792.165 32.208C791.861 32.992 791.429 33.688 790.869 34.296C790.309 34.888 789.621 35.36 788.805 35.712C787.989 36.064 787.069 36.24 786.045 36.24ZM782.757 29.736C782.757 30.296 782.837 30.808 782.997 31.272C783.173 31.72 783.405 32.112 783.693 32.448C783.997 32.784 784.349 33.048 784.749 33.24C785.149 33.416 785.581 33.504 786.045 33.504C786.509 33.504 786.941 33.416 787.341 33.24C787.741 33.048 788.085 32.784 788.373 32.448C788.677 32.112 788.909 31.712 789.069 31.248C789.245 30.784 789.333 30.272 789.333 29.712C789.333 29.168 789.245 28.664 789.069 28.2C788.909 27.736 788.677 27.336 788.373 27C788.085 26.664 787.741 26.408 787.341 26.232C786.941 26.04 786.509 25.944 786.045 25.944C785.581 25.944 785.149 26.04 784.749 26.232C784.349 26.424 783.997 26.688 783.693 27.024C783.405 27.36 783.173 27.76 782.997 28.224C782.837 28.688 782.757 29.192 782.757 29.736ZM806.48 36H803.264V28.944C803.264 27.936 803.088 27.2 802.736 26.736C802.384 26.272 801.896 26.04 801.272 26.04C800.952 26.04 800.624 26.104 800.288 26.232C799.952 26.36 799.632 26.544 799.328 26.784C799.04 27.008 798.776 27.28 798.536 27.6C798.296 27.92 798.12 28.272 798.008 28.656V36H794.792V23.424H797.696V25.752C798.16 24.952 798.832 24.328 799.712 23.88C800.592 23.432 801.584 23.208 802.688 23.208C803.472 23.208 804.112 23.352 804.608 23.64C805.104 23.928 805.488 24.304 805.76 24.768C806.032 25.232 806.216 25.76 806.312 26.352C806.424 26.944 806.48 27.544 806.48 28.152V36ZM816.695 35.352C816.263 35.544 815.735 35.736 815.111 35.928C814.487 36.12 813.831 36.216 813.143 36.216C812.695 36.216 812.271 36.16 811.871 36.048C811.487 35.936 811.143 35.76 810.839 35.52C810.551 35.264 810.319 34.944 810.143 34.56C809.967 34.16 809.879 33.68 809.879 33.12V25.896H808.223V23.424H809.879V19.344H813.095V23.424H815.735V25.896H813.095V32.04C813.095 32.488 813.207 32.808 813.431 33C813.671 33.176 813.959 33.264 814.295 33.264C814.631 33.264 814.959 33.208 815.279 33.096C815.599 32.984 815.855 32.888 816.047 32.808L816.695 35.352ZM821.802 36.24C821.194 36.24 820.626 36.144 820.098 35.952C819.57 35.744 819.114 35.464 818.73 35.112C818.346 34.744 818.042 34.32 817.818 33.84C817.61 33.36 817.506 32.832 817.506 32.256C817.506 31.664 817.634 31.12 817.89 30.624C818.162 30.112 818.53 29.68 818.994 29.328C819.474 28.976 820.042 28.704 820.698 28.512C821.354 28.304 822.074 28.2 822.858 28.2C823.418 28.2 823.962 28.248 824.49 28.344C825.034 28.44 825.514 28.576 825.93 28.752V28.032C825.93 27.2 825.69 26.56 825.21 26.112C824.746 25.664 824.05 25.44 823.122 25.44C822.45 25.44 821.794 25.56 821.154 25.8C820.514 26.04 819.858 26.392 819.186 26.856L818.202 24.816C819.818 23.744 821.562 23.208 823.434 23.208C825.242 23.208 826.642 23.656 827.634 24.552C828.642 25.432 829.146 26.712 829.146 28.392V32.304C829.146 32.64 829.202 32.88 829.314 33.024C829.442 33.168 829.642 33.248 829.914 33.264V36C829.37 36.112 828.898 36.168 828.498 36.168C827.89 36.168 827.418 36.032 827.082 35.76C826.762 35.488 826.562 35.128 826.482 34.68L826.41 33.984C825.85 34.72 825.17 35.28 824.37 35.664C823.57 36.048 822.714 36.24 821.802 36.24ZM822.714 33.888C823.258 33.888 823.77 33.792 824.25 33.6C824.746 33.408 825.13 33.152 825.402 32.832C825.754 32.56 825.93 32.256 825.93 31.92V30.48C825.546 30.336 825.13 30.224 824.682 30.144C824.234 30.048 823.802 30 823.386 30C822.554 30 821.874 30.192 821.346 30.576C820.818 30.944 820.554 31.416 820.554 31.992C820.554 32.536 820.762 32.992 821.178 33.36C821.594 33.712 822.106 33.888 822.714 33.888ZM831.36 29.712C831.36 28.832 831.512 28 831.816 27.216C832.12 26.432 832.56 25.744 833.136 25.152C833.712 24.56 834.408 24.088 835.224 23.736C836.04 23.384 836.96 23.208 837.984 23.208C839.36 23.208 840.528 23.504 841.488 24.096C842.464 24.688 843.192 25.464 843.672 26.424L840.528 27.384C840.256 26.92 839.896 26.568 839.448 26.328C839 26.072 838.504 25.944 837.96 25.944C837.496 25.944 837.064 26.04 836.664 26.232C836.264 26.408 835.912 26.664 835.608 27C835.32 27.32 835.088 27.712 834.912 28.176C834.752 28.64 834.672 29.152 834.672 29.712C834.672 30.272 834.76 30.784 834.936 31.248C835.112 31.712 835.344 32.112 835.632 32.448C835.936 32.784 836.288 33.048 836.688 33.24C837.088 33.416 837.512 33.504 837.96 33.504C838.536 33.504 839.064 33.36 839.544 33.072C840.04 32.784 840.384 32.432 840.576 32.016L843.72 32.976C843.288 33.936 842.576 34.72 841.584 35.328C840.592 35.936 839.4 36.24 838.008 36.24C836.984 36.24 836.064 36.064 835.248 35.712C834.432 35.36 833.736 34.888 833.16 34.296C832.584 33.688 832.136 32.992 831.816 32.208C831.512 31.408 831.36 30.576 831.36 29.712ZM853.234 35.352C852.802 35.544 852.274 35.736 851.65 35.928C851.026 36.12 850.37 36.216 849.682 36.216C849.234 36.216 848.81 36.16 848.41 36.048C848.026 35.936 847.682 35.76 847.378 35.52C847.09 35.264 846.858 34.944 846.682 34.56C846.506 34.16 846.418 33.68 846.418 33.12V25.896H844.762V23.424H846.418V19.344H849.634V23.424H852.274V25.896H849.634V32.04C849.634 32.488 849.746 32.808 849.97 33C850.21 33.176 850.498 33.264 850.834 33.264C851.17 33.264 851.498 33.208 851.818 33.096C852.138 32.984 852.394 32.888 852.586 32.808L853.234 35.352ZM866.873 39.12V17.4H869.609V39.12H866.873ZM894.687 18.96H897.615L904.095 36H900.687L899.103 31.752H893.151L891.59 36H888.183L894.687 18.96ZM898.503 29.424L896.151 22.728L893.703 29.424H898.503ZM912.804 36.24C911.844 36.24 910.988 36.024 910.236 35.592C909.484 35.16 908.892 34.568 908.46 33.816V36H905.652V18.48H908.868V25.632C909.316 24.864 909.9 24.272 910.62 23.856C911.356 23.424 912.212 23.208 913.188 23.208C914.004 23.208 914.748 23.384 915.42 23.736C916.092 24.088 916.668 24.56 917.148 25.152C917.644 25.744 918.02 26.44 918.276 27.24C918.548 28.04 918.684 28.88 918.684 29.76C918.684 30.672 918.532 31.52 918.228 32.304C917.94 33.088 917.532 33.776 917.004 34.368C916.476 34.944 915.852 35.4 915.132 35.736C914.412 36.072 913.636 36.24 912.804 36.24ZM911.916 33.504C912.428 33.504 912.9 33.408 913.332 33.216C913.764 33.008 914.132 32.736 914.436 32.4C914.74 32.064 914.972 31.672 915.132 31.224C915.308 30.776 915.396 30.296 915.396 29.784C915.396 29.272 915.316 28.784 915.156 28.32C914.996 27.856 914.764 27.448 914.46 27.096C914.172 26.744 913.828 26.464 913.428 26.256C913.028 26.048 912.588 25.944 912.108 25.944C911.388 25.944 910.74 26.184 910.164 26.664C909.604 27.128 909.172 27.704 908.868 28.392V31.392C908.98 31.712 909.14 32 909.348 32.256C909.572 32.512 909.82 32.736 910.092 32.928C910.364 33.104 910.66 33.248 910.98 33.36C911.3 33.456 911.612 33.504 911.916 33.504ZM926.67 36.24C925.646 36.24 924.726 36.064 923.91 35.712C923.094 35.36 922.398 34.888 921.822 34.296C921.262 33.688 920.83 32.992 920.526 32.208C920.222 31.424 920.07 30.6 920.07 29.736C920.07 28.856 920.222 28.024 920.526 27.24C920.83 26.456 921.262 25.768 921.822 25.176C922.398 24.568 923.094 24.088 923.91 23.736C924.726 23.384 925.646 23.208 926.67 23.208C927.694 23.208 928.606 23.384 929.406 23.736C930.222 24.088 930.91 24.568 931.47 25.176C932.046 25.768 932.486 26.456 932.79 27.24C933.094 28.024 933.246 28.856 933.246 29.736C933.246 30.6 933.094 31.424 932.79 32.208C932.486 32.992 932.054 33.688 931.494 34.296C930.934 34.888 930.246 35.36 929.43 35.712C928.614 36.064 927.694 36.24 926.67 36.24ZM923.382 29.736C923.382 30.296 923.462 30.808 923.622 31.272C923.798 31.72 924.03 32.112 924.318 32.448C924.622 32.784 924.974 33.048 925.374 33.24C925.774 33.416 926.206 33.504 926.67 33.504C927.134 33.504 927.566 33.416 927.966 33.24C928.366 33.048 928.71 32.784 928.998 32.448C929.302 32.112 929.534 31.712 929.694 31.248C929.87 30.784 929.958 30.272 929.958 29.712C929.958 29.168 929.87 28.664 929.694 28.2C929.534 27.736 929.302 27.336 928.998 27C928.71 26.664 928.366 26.408 927.966 26.232C927.566 26.04 927.134 25.944 926.67 25.944C926.206 25.944 925.774 26.04 925.374 26.232C924.974 26.424 924.622 26.688 924.318 27.024C924.03 27.36 923.798 27.76 923.622 28.224C923.462 28.688 923.382 29.192 923.382 29.736ZM939.257 36.24C937.961 36.24 936.977 35.824 936.305 34.992C935.633 34.16 935.297 32.928 935.297 31.296V23.424H938.513V30.6C938.513 32.536 939.209 33.504 940.601 33.504C941.225 33.504 941.825 33.32 942.401 32.952C942.993 32.568 943.473 31.992 943.841 31.224V23.424H947.057V32.304C947.057 32.64 947.113 32.88 947.225 33.024C947.353 33.168 947.553 33.248 947.825 33.264V36C947.505 36.064 947.233 36.104 947.009 36.12C946.801 36.136 946.609 36.144 946.433 36.144C945.857 36.144 945.385 36.016 945.017 35.76C944.665 35.488 944.457 35.12 944.393 34.656L944.321 33.648C943.761 34.512 943.041 35.16 942.161 35.592C941.281 36.024 940.313 36.24 939.257 36.24ZM957.789 35.352C957.357 35.544 956.829 35.736 956.205 35.928C955.581 36.12 954.925 36.216 954.237 36.216C953.789 36.216 953.365 36.16 952.965 36.048C952.581 35.936 952.237 35.76 951.933 35.52C951.645 35.264 951.413 34.944 951.237 34.56C951.061 34.16 950.973 33.68 950.973 33.12V25.896H949.317V23.424H950.973V19.344H954.189V23.424H956.829V25.896H954.189V32.04C954.189 32.488 954.301 32.808 954.525 33C954.765 33.176 955.053 33.264 955.389 33.264C955.725 33.264 956.053 33.208 956.373 33.096C956.693 32.984 956.949 32.888 957.141 32.808L957.789 35.352Z" fill="#BFBFBF"/>
</g>
</svg>
