<svg width="960" height="732" viewBox="0 0 960 732" fill="none" xmlns="http://www.w3.org/2000/svg">
<g id="template-template.inline" clip-path="url(#clip0)">
<path id="WE&#226;&#128;&#153;RE UNIQUE" d="M240.14 216.024H249.284L255.044 232.944L260.804 216.024H270.02L261.308 239.28L267.788 255.624L282.26 215.88H293.06L272.252 267H263.9L255.044 245.544L246.188 267H237.836L217.172 215.88H227.828L242.372 255.624L248.708 239.28L240.14 216.024ZM333.793 258.288V267H298.297V215.88H333.145V224.592H308.233V236.904H329.761V244.968H308.233V258.288H333.793ZM341.251 232.512L342.835 223.728H339.955V214.008H349.675V223.872L347.083 232.512H341.251ZM358.625 267V215.88H381.233C383.585 215.88 385.745 216.384 387.713 217.392C389.729 218.352 391.457 219.648 392.897 221.28C394.337 222.864 395.465 224.688 396.281 226.752C397.097 228.768 397.505 230.808 397.505 232.872C397.505 236.184 396.665 239.208 394.985 241.944C393.353 244.632 391.121 246.576 388.289 247.776L399.953 267H388.793L378.353 249.864H368.561V267H358.625ZM368.561 241.152H381.017C381.929 241.152 382.769 240.936 383.537 240.504C384.353 240.072 385.049 239.496 385.625 238.776C386.201 238.008 386.657 237.12 386.993 236.112C387.329 235.104 387.497 234.024 387.497 232.872C387.497 231.672 387.305 230.568 386.921 229.56C386.537 228.552 386.009 227.688 385.337 226.968C384.713 226.2 383.969 225.624 383.105 225.24C382.289 224.808 381.449 224.592 380.585 224.592H368.561V241.152ZM442.004 258.288V267H406.508V215.88H441.356V224.592H416.444V236.904H437.972V244.968H416.444V258.288H442.004ZM488.647 258.576C490.999 258.576 492.967 258.096 494.551 257.136C496.183 256.176 497.479 254.928 498.439 253.392C499.447 251.856 500.143 250.104 500.527 248.136C500.959 246.12 501.175 244.056 501.175 241.944V215.88H511.039V241.944C511.039 245.448 510.607 248.736 509.743 251.808C508.927 254.88 507.607 257.568 505.783 259.872C504.007 262.176 501.703 264 498.871 265.344C496.039 266.688 492.655 267.36 488.719 267.36C484.639 267.36 481.159 266.664 478.279 265.272C475.447 263.832 473.143 261.96 471.367 259.656C469.591 257.304 468.295 254.592 467.479 251.52C466.711 248.448 466.327 245.256 466.327 241.944V215.88H476.263V241.944C476.263 244.104 476.455 246.192 476.839 248.208C477.271 250.176 477.967 251.928 478.927 253.464C479.935 255 481.231 256.248 482.815 257.208C484.399 258.12 486.343 258.576 488.647 258.576ZM530.983 234.24V267H521.047V215.88H528.751L555.391 249.432V215.952H565.327V267H557.263L530.983 234.24ZM575.961 267V215.88H585.897V267H575.961ZM631.338 263.688C629.466 264.84 627.45 265.752 625.29 266.424C623.13 267.048 620.826 267.36 618.378 267.36C614.634 267.36 611.226 266.616 608.154 265.128C605.13 263.64 602.514 261.696 600.306 259.296C598.146 256.896 596.466 254.136 595.266 251.016C594.066 247.896 593.466 244.704 593.466 241.44C593.466 238.032 594.09 234.768 595.338 231.648C596.634 228.528 598.386 225.768 600.594 223.368C602.85 220.968 605.514 219.072 608.586 217.68C611.658 216.24 614.994 215.52 618.594 215.52C622.29 215.52 625.65 216.288 628.674 217.824C631.746 219.312 634.362 221.28 636.522 223.728C638.682 226.176 640.362 228.96 641.562 232.08C642.762 235.2 643.362 238.368 643.362 241.584C643.362 244.896 642.762 248.064 641.562 251.088C640.41 254.112 638.778 256.8 636.666 259.152L643.65 267H634.29L631.338 263.688ZM618.45 258.576C619.746 258.576 620.946 258.432 622.05 258.144C623.202 257.808 624.258 257.376 625.218 256.848L617.442 248.064H626.802L630.33 252.024C631.29 250.488 632.034 248.808 632.562 246.984C633.09 245.16 633.354 243.312 633.354 241.44C633.354 239.232 632.994 237.096 632.274 235.032C631.602 232.968 630.618 231.144 629.322 229.56C628.074 227.976 626.514 226.704 624.642 225.744C622.818 224.784 620.754 224.304 618.45 224.304C616.05 224.304 613.914 224.808 612.042 225.816C610.17 226.776 608.61 228.072 607.362 229.704C606.114 231.336 605.154 233.184 604.482 235.248C603.858 237.264 603.546 239.328 603.546 241.44C603.546 243.648 603.882 245.784 604.554 247.848C605.226 249.912 606.186 251.736 607.434 253.32C608.73 254.904 610.29 256.176 612.114 257.136C613.986 258.096 616.098 258.576 618.45 258.576ZM672.514 258.576C674.866 258.576 676.834 258.096 678.418 257.136C680.05 256.176 681.346 254.928 682.306 253.392C683.314 251.856 684.01 250.104 684.394 248.136C684.826 246.12 685.042 244.056 685.042 241.944V215.88H694.906V241.944C694.906 245.448 694.474 248.736 693.61 251.808C692.794 254.88 691.474 257.568 689.65 259.872C687.874 262.176 685.57 264 682.738 265.344C679.906 266.688 676.522 267.36 672.586 267.36C668.506 267.36 665.026 266.664 662.146 265.272C659.314 263.832 657.01 261.96 655.234 259.656C653.458 257.304 652.162 254.592 651.346 251.52C650.578 248.448 650.194 245.256 650.194 241.944V215.88H660.13V241.944C660.13 244.104 660.322 246.192 660.706 248.208C661.138 250.176 661.834 251.928 662.794 253.464C663.802 255 665.098 256.248 666.682 257.208C668.266 258.12 670.21 258.576 672.514 258.576ZM740.41 258.288V267H704.914V215.88H739.762V224.592H714.85V236.904H736.378V244.968H714.85V258.288H740.41Z" fill="#BFBFBF"/>
<path id="1" d="M177.051 646.288V655H147.819V646.288H158.043V624.472C157.611 625.048 156.915 625.648 155.955 626.272C155.043 626.848 154.035 627.4 152.931 627.928C151.827 628.456 150.675 628.888 149.475 629.224C148.323 629.56 147.291 629.728 146.379 629.728V620.728C147.243 620.728 148.299 620.464 149.547 619.936C150.795 619.36 152.019 618.688 153.219 617.92C154.419 617.152 155.451 616.408 156.315 615.688C157.227 614.92 157.803 614.32 158.043 613.888H167.907V646.288H177.051Z" fill="#BFBFBF"/>
<path id="2" d="M497.895 654H462.809V647.039L479.367 629.391C481.641 626.906 483.316 624.738 484.395 622.887C485.496 621.035 486.047 619.277 486.047 617.613C486.047 615.34 485.473 613.559 484.324 612.27C483.176 610.957 481.535 610.301 479.402 610.301C477.105 610.301 475.289 611.098 473.953 612.691C472.641 614.262 471.984 616.336 471.984 618.914H461.789C461.789 615.797 462.527 612.949 464.004 610.371C465.504 607.793 467.613 605.777 470.332 604.324C473.051 602.848 476.133 602.109 479.578 602.109C484.852 602.109 488.941 603.375 491.848 605.906C494.777 608.438 496.242 612.012 496.242 616.629C496.242 619.16 495.586 621.738 494.273 624.363C492.961 626.988 490.711 630.047 487.523 633.539L475.887 645.809H497.895V654Z" fill="#BFBFBF"/>
<path id="3" d="M806.358 638.008C809.334 638.536 811.734 639.976 813.558 642.328C815.43 644.632 816.366 647.464 816.366 650.824C816.366 653.08 815.91 655.12 814.998 656.944C814.134 658.768 812.886 660.304 811.254 661.552C809.67 662.848 807.726 663.832 805.422 664.504C803.118 665.224 800.526 665.584 797.646 665.584C793.998 665.584 790.758 664.984 787.926 663.784C785.142 662.632 782.814 660.928 780.942 658.672L786.414 651.832C787.662 653.416 789.15 654.64 790.878 655.504C792.606 656.368 794.766 656.8 797.358 656.8C800.286 656.8 802.518 656.224 804.054 655.072C805.59 653.92 806.358 652.144 806.358 649.744C806.358 647.248 805.47 645.328 803.694 643.984C801.918 642.64 799.23 641.968 795.63 641.968H793.614V634.768H795.846C798.822 634.768 801.126 634.12 802.758 632.824C804.39 631.48 805.206 629.776 805.206 627.712C805.206 625.744 804.534 624.28 803.19 623.32C801.846 622.36 800.094 621.88 797.934 621.88C795.726 621.88 793.734 622.384 791.958 623.392C790.23 624.4 788.814 625.816 787.71 627.64L781.662 620.872C782.382 619.768 783.342 618.784 784.542 617.92C785.742 617.008 787.086 616.24 788.574 615.616C790.11 614.944 791.766 614.44 793.542 614.104C795.318 613.72 797.142 613.528 799.014 613.528C801.462 613.528 803.694 613.84 805.71 614.464C807.726 615.088 809.454 615.952 810.894 617.056C812.382 618.16 813.51 619.504 814.278 621.088C815.094 622.624 815.502 624.352 815.502 626.272C815.502 627.712 815.286 629.08 814.854 630.376C814.422 631.672 813.798 632.848 812.982 633.904C812.166 634.96 811.182 635.848 810.03 636.568C808.926 637.288 807.702 637.768 806.358 638.008Z" fill="#BFBFBF"/>
<path id="This is how unique we are:" d="M379.023 439.398H374.937V450H372.471V439.398H368.385V437.22H379.023V439.398ZM389.141 450H386.729V444.708C386.729 443.964 386.591 443.418 386.315 443.07C386.039 442.71 385.649 442.53 385.145 442.53C384.929 442.53 384.701 442.578 384.461 442.674C384.221 442.77 383.993 442.908 383.777 443.088C383.561 443.256 383.363 443.46 383.183 443.7C383.003 443.94 382.871 444.204 382.787 444.492V450H380.375V436.86H382.787V442.314C383.135 441.702 383.603 441.234 384.191 440.91C384.791 440.574 385.451 440.406 386.171 440.406C386.783 440.406 387.281 440.514 387.665 440.73C388.049 440.934 388.349 441.21 388.565 441.558C388.781 441.906 388.931 442.302 389.015 442.746C389.099 443.19 389.141 443.646 389.141 444.114V450ZM391.239 450V440.568H393.651V450H391.239ZM391.239 439.254V436.86H393.651V439.254H391.239ZM399.391 450.18C398.599 450.18 397.825 450.054 397.069 449.802C396.313 449.55 395.665 449.19 395.125 448.722L396.025 447.21C396.601 447.618 397.159 447.93 397.699 448.146C398.251 448.35 398.797 448.452 399.337 448.452C399.817 448.452 400.195 448.362 400.471 448.182C400.747 448.002 400.885 447.744 400.885 447.408C400.885 447.072 400.723 446.826 400.399 446.67C400.075 446.514 399.547 446.334 398.815 446.13C398.203 445.962 397.681 445.8 397.249 445.644C396.817 445.488 396.469 445.314 396.205 445.122C395.941 444.918 395.749 444.69 395.629 444.438C395.509 444.174 395.449 443.862 395.449 443.502C395.449 443.022 395.539 442.59 395.719 442.206C395.911 441.822 396.175 441.498 396.511 441.234C396.847 440.958 397.237 440.748 397.681 440.604C398.137 440.46 398.629 440.388 399.157 440.388C399.865 440.388 400.525 440.49 401.137 440.694C401.761 440.898 402.331 441.228 402.847 441.684L401.875 443.142C401.395 442.782 400.927 442.518 400.471 442.35C400.027 442.182 399.583 442.098 399.139 442.098C398.731 442.098 398.389 442.182 398.113 442.35C397.837 442.518 397.699 442.788 397.699 443.16C397.699 443.328 397.729 443.466 397.789 443.574C397.861 443.682 397.969 443.778 398.113 443.862C398.257 443.946 398.443 444.03 398.671 444.114C398.911 444.186 399.205 444.264 399.553 444.348C400.201 444.516 400.753 444.684 401.209 444.852C401.677 445.02 402.055 445.212 402.343 445.428C402.643 445.644 402.859 445.896 402.991 446.184C403.135 446.46 403.207 446.796 403.207 447.192C403.207 448.116 402.865 448.848 402.181 449.388C401.497 449.916 400.567 450.18 399.391 450.18ZM409.098 450V440.568H411.51V450H409.098ZM409.098 439.254V436.86H411.51V439.254H409.098ZM417.25 450.18C416.458 450.18 415.684 450.054 414.928 449.802C414.172 449.55 413.524 449.19 412.984 448.722L413.884 447.21C414.46 447.618 415.018 447.93 415.558 448.146C416.11 448.35 416.656 448.452 417.196 448.452C417.676 448.452 418.054 448.362 418.33 448.182C418.606 448.002 418.744 447.744 418.744 447.408C418.744 447.072 418.582 446.826 418.258 446.67C417.934 446.514 417.406 446.334 416.674 446.13C416.062 445.962 415.54 445.8 415.108 445.644C414.676 445.488 414.328 445.314 414.064 445.122C413.8 444.918 413.608 444.69 413.488 444.438C413.368 444.174 413.308 443.862 413.308 443.502C413.308 443.022 413.398 442.59 413.578 442.206C413.77 441.822 414.034 441.498 414.37 441.234C414.706 440.958 415.096 440.748 415.54 440.604C415.996 440.46 416.488 440.388 417.016 440.388C417.724 440.388 418.384 440.49 418.996 440.694C419.62 440.898 420.19 441.228 420.706 441.684L419.734 443.142C419.254 442.782 418.786 442.518 418.33 442.35C417.886 442.182 417.442 442.098 416.998 442.098C416.59 442.098 416.248 442.182 415.972 442.35C415.696 442.518 415.558 442.788 415.558 443.16C415.558 443.328 415.588 443.466 415.648 443.574C415.72 443.682 415.828 443.778 415.972 443.862C416.116 443.946 416.302 444.03 416.53 444.114C416.77 444.186 417.064 444.264 417.412 444.348C418.06 444.516 418.612 444.684 419.068 444.852C419.536 445.02 419.914 445.212 420.202 445.428C420.502 445.644 420.718 445.896 420.85 446.184C420.994 446.46 421.066 446.796 421.066 447.192C421.066 448.116 420.724 448.848 420.04 449.388C419.356 449.916 418.426 450.18 417.25 450.18ZM435.723 450H433.311V444.708C433.311 443.964 433.173 443.418 432.897 443.07C432.621 442.71 432.231 442.53 431.727 442.53C431.511 442.53 431.283 442.578 431.043 442.674C430.803 442.77 430.575 442.908 430.359 443.088C430.143 443.256 429.945 443.46 429.765 443.7C429.585 443.94 429.453 444.204 429.369 444.492V450H426.957V436.86H429.369V442.314C429.717 441.702 430.185 441.234 430.773 440.91C431.373 440.574 432.033 440.406 432.753 440.406C433.365 440.406 433.863 440.514 434.247 440.73C434.631 440.934 434.931 441.21 435.147 441.558C435.363 441.906 435.513 442.302 435.597 442.746C435.681 443.19 435.723 443.646 435.723 444.114V450ZM442.177 450.18C441.409 450.18 440.719 450.048 440.107 449.784C439.495 449.52 438.973 449.166 438.541 448.722C438.121 448.266 437.797 447.744 437.569 447.156C437.341 446.568 437.227 445.95 437.227 445.302C437.227 444.642 437.341 444.018 437.569 443.43C437.797 442.842 438.121 442.326 438.541 441.882C438.973 441.426 439.495 441.066 440.107 440.802C440.719 440.538 441.409 440.406 442.177 440.406C442.945 440.406 443.629 440.538 444.229 440.802C444.841 441.066 445.357 441.426 445.777 441.882C446.209 442.326 446.539 442.842 446.767 443.43C446.995 444.018 447.109 444.642 447.109 445.302C447.109 445.95 446.995 446.568 446.767 447.156C446.539 447.744 446.215 448.266 445.795 448.722C445.375 449.166 444.859 449.52 444.247 449.784C443.635 450.048 442.945 450.18 442.177 450.18ZM439.711 445.302C439.711 445.722 439.771 446.106 439.891 446.454C440.023 446.79 440.197 447.084 440.413 447.336C440.641 447.588 440.905 447.786 441.205 447.93C441.505 448.062 441.829 448.128 442.177 448.128C442.525 448.128 442.849 448.062 443.149 447.93C443.449 447.786 443.707 447.588 443.923 447.336C444.151 447.084 444.325 446.784 444.445 446.436C444.577 446.088 444.643 445.704 444.643 445.284C444.643 444.876 444.577 444.498 444.445 444.15C444.325 443.802 444.151 443.502 443.923 443.25C443.707 442.998 443.449 442.806 443.149 442.674C442.849 442.53 442.525 442.458 442.177 442.458C441.829 442.458 441.505 442.53 441.205 442.674C440.905 442.818 440.641 443.016 440.413 443.268C440.197 443.52 440.023 443.82 439.891 444.168C439.771 444.516 439.711 444.894 439.711 445.302ZM460.103 440.568H462.389L458.447 450H456.467L454.847 445.86L453.245 450H451.265L447.341 440.568H449.609L452.417 447.732L453.569 444.672L451.913 440.586H453.857L454.847 443.484L455.855 440.586H457.799L456.161 444.672L457.295 447.732L460.103 440.568ZM470.214 450.18C469.242 450.18 468.504 449.868 468 449.244C467.496 448.62 467.244 447.696 467.244 446.472V440.568H469.656V445.95C469.656 447.402 470.178 448.128 471.222 448.128C471.69 448.128 472.14 447.99 472.572 447.714C473.016 447.426 473.376 446.994 473.652 446.418V440.568H476.064V447.228C476.064 447.48 476.106 447.66 476.19 447.768C476.286 447.876 476.436 447.936 476.64 447.948V450C476.4 450.048 476.196 450.078 476.028 450.09C475.872 450.102 475.728 450.108 475.596 450.108C475.164 450.108 474.81 450.012 474.534 449.82C474.27 449.616 474.114 449.34 474.066 448.992L474.012 448.236C473.592 448.884 473.052 449.37 472.392 449.694C471.732 450.018 471.006 450.18 470.214 450.18ZM487.227 450H484.815V444.708C484.815 443.952 484.683 443.4 484.419 443.052C484.155 442.704 483.789 442.53 483.321 442.53C483.081 442.53 482.835 442.578 482.583 442.674C482.331 442.77 482.091 442.908 481.863 443.088C481.647 443.256 481.449 443.46 481.269 443.7C481.089 443.94 480.957 444.204 480.873 444.492V450H478.461V440.568H480.639V442.314C480.987 441.714 481.491 441.246 482.151 440.91C482.811 440.574 483.555 440.406 484.383 440.406C484.971 440.406 485.451 440.514 485.823 440.73C486.195 440.946 486.483 441.228 486.687 441.576C486.891 441.924 487.029 442.32 487.101 442.764C487.185 443.208 487.227 443.658 487.227 444.114V450ZM489.325 450V440.568H491.737V450H489.325ZM489.325 439.254V436.86H491.737V439.254H489.325ZM497.476 450.18C496.876 450.18 496.324 450.054 495.82 449.802C495.316 449.538 494.878 449.184 494.506 448.74C494.146 448.296 493.864 447.78 493.66 447.192C493.456 446.592 493.354 445.95 493.354 445.266C493.354 444.582 493.462 443.946 493.678 443.358C493.906 442.77 494.218 442.26 494.614 441.828C495.01 441.384 495.478 441.036 496.018 440.784C496.558 440.532 497.14 440.406 497.764 440.406C498.484 440.406 499.12 440.574 499.672 440.91C500.224 441.234 500.674 441.666 501.022 442.206V440.568H503.128V450.936C503.128 451.2 503.176 451.38 503.272 451.476C503.368 451.584 503.536 451.644 503.776 451.656V453.708C503.572 453.744 503.35 453.768 503.11 453.78C502.87 453.804 502.654 453.816 502.462 453.816C502.222 453.816 501.994 453.774 501.778 453.69C501.574 453.606 501.394 453.492 501.238 453.348C501.082 453.204 500.956 453.03 500.86 452.826C500.764 452.634 500.716 452.418 500.716 452.178V448.344C500.368 448.956 499.918 449.418 499.366 449.73C498.814 450.03 498.184 450.18 497.476 450.18ZM498.376 448.128C498.892 448.128 499.342 447.984 499.726 447.696C500.11 447.408 500.44 447.036 500.716 446.58V444.348C500.644 444.084 500.524 443.838 500.356 443.61C500.2 443.382 500.014 443.184 499.798 443.016C499.582 442.836 499.348 442.698 499.096 442.602C498.844 442.506 498.592 442.458 498.34 442.458C497.968 442.458 497.626 442.536 497.314 442.692C497.014 442.848 496.75 443.064 496.522 443.34C496.306 443.604 496.132 443.91 496 444.258C495.88 444.606 495.82 444.966 495.82 445.338C495.82 445.734 495.88 446.1 496 446.436C496.132 446.772 496.306 447.066 496.522 447.318C496.75 447.57 497.02 447.768 497.332 447.912C497.644 448.056 497.992 448.128 498.376 448.128ZM508.201 450.18C507.229 450.18 506.491 449.868 505.987 449.244C505.483 448.62 505.231 447.696 505.231 446.472V440.568H507.643V445.95C507.643 447.402 508.165 448.128 509.209 448.128C509.677 448.128 510.127 447.99 510.559 447.714C511.003 447.426 511.363 446.994 511.639 446.418V440.568H514.051V447.228C514.051 447.48 514.093 447.66 514.177 447.768C514.273 447.876 514.423 447.936 514.627 447.948V450C514.387 450.048 514.183 450.078 514.015 450.09C513.859 450.102 513.715 450.108 513.583 450.108C513.151 450.108 512.797 450.012 512.521 449.82C512.257 449.616 512.101 449.34 512.053 448.992L511.999 448.236C511.579 448.884 511.039 449.37 510.379 449.694C509.719 450.018 508.993 450.18 508.201 450.18ZM520.822 450.18C520.066 450.18 519.382 450.054 518.77 449.802C518.158 449.538 517.636 449.184 517.204 448.74C516.772 448.296 516.436 447.78 516.196 447.192C515.968 446.604 515.854 445.986 515.854 445.338C515.854 444.666 515.968 444.036 516.196 443.448C516.424 442.848 516.754 442.326 517.186 441.882C517.618 441.426 518.14 441.066 518.752 440.802C519.376 440.538 520.072 440.406 520.84 440.406C521.608 440.406 522.292 440.538 522.892 440.802C523.504 441.066 524.02 441.42 524.44 441.864C524.872 442.308 525.196 442.824 525.412 443.412C525.64 444 525.754 444.612 525.754 445.248C525.754 445.404 525.748 445.554 525.736 445.698C525.736 445.842 525.724 445.962 525.7 446.058H518.41C518.446 446.43 518.536 446.76 518.68 447.048C518.824 447.336 519.01 447.582 519.238 447.786C519.466 447.99 519.724 448.146 520.012 448.254C520.3 448.362 520.6 448.416 520.912 448.416C521.392 448.416 521.842 448.302 522.262 448.074C522.694 447.834 522.988 447.522 523.144 447.138L525.214 447.714C524.866 448.434 524.308 449.028 523.54 449.496C522.784 449.952 521.878 450.18 520.822 450.18ZM523.27 444.492C523.21 443.784 522.946 443.22 522.478 442.8C522.022 442.368 521.464 442.152 520.804 442.152C520.48 442.152 520.174 442.212 519.886 442.332C519.61 442.44 519.364 442.596 519.148 442.8C518.932 443.004 518.752 443.25 518.608 443.538C518.476 443.826 518.398 444.144 518.374 444.492H523.27ZM542.755 440.568H545.041L541.099 450H539.119L537.499 445.86L535.897 450H533.917L529.993 440.568H532.261L535.069 447.732L536.221 444.672L534.565 440.586H536.509L537.499 443.484L538.507 440.586H540.451L538.813 444.672L539.947 447.732L542.755 440.568ZM550.195 450.18C549.439 450.18 548.755 450.054 548.143 449.802C547.531 449.538 547.009 449.184 546.577 448.74C546.145 448.296 545.809 447.78 545.569 447.192C545.341 446.604 545.227 445.986 545.227 445.338C545.227 444.666 545.341 444.036 545.569 443.448C545.797 442.848 546.127 442.326 546.559 441.882C546.991 441.426 547.513 441.066 548.125 440.802C548.749 440.538 549.445 440.406 550.213 440.406C550.981 440.406 551.665 440.538 552.265 440.802C552.877 441.066 553.393 441.42 553.813 441.864C554.245 442.308 554.569 442.824 554.785 443.412C555.013 444 555.127 444.612 555.127 445.248C555.127 445.404 555.121 445.554 555.109 445.698C555.109 445.842 555.097 445.962 555.073 446.058H547.783C547.819 446.43 547.909 446.76 548.053 447.048C548.197 447.336 548.383 447.582 548.611 447.786C548.839 447.99 549.097 448.146 549.385 448.254C549.673 448.362 549.973 448.416 550.285 448.416C550.765 448.416 551.215 448.302 551.635 448.074C552.067 447.834 552.361 447.522 552.517 447.138L554.587 447.714C554.239 448.434 553.681 449.028 552.913 449.496C552.157 449.952 551.251 450.18 550.195 450.18ZM552.643 444.492C552.583 443.784 552.319 443.22 551.851 442.8C551.395 442.368 550.837 442.152 550.177 442.152C549.853 442.152 549.547 442.212 549.259 442.332C548.983 442.44 548.737 442.596 548.521 442.8C548.305 443.004 548.125 443.25 547.981 443.538C547.849 443.826 547.771 444.144 547.747 444.492H552.643ZM563.494 450.18C563.038 450.18 562.612 450.108 562.216 449.964C561.82 449.808 561.478 449.598 561.19 449.334C560.902 449.058 560.674 448.74 560.506 448.38C560.35 448.02 560.272 447.624 560.272 447.192C560.272 446.748 560.368 446.34 560.56 445.968C560.764 445.584 561.04 445.26 561.388 444.996C561.748 444.732 562.174 444.528 562.666 444.384C563.158 444.228 563.698 444.15 564.286 444.15C564.706 444.15 565.114 444.186 565.51 444.258C565.918 444.33 566.278 444.432 566.59 444.564V444.024C566.59 443.4 566.41 442.92 566.05 442.584C565.702 442.248 565.18 442.08 564.484 442.08C563.98 442.08 563.488 442.17 563.008 442.35C562.528 442.53 562.036 442.794 561.532 443.142L560.794 441.612C562.006 440.808 563.314 440.406 564.718 440.406C566.074 440.406 567.124 440.742 567.868 441.414C568.624 442.074 569.002 443.034 569.002 444.294V447.228C569.002 447.48 569.044 447.66 569.128 447.768C569.224 447.876 569.374 447.936 569.578 447.948V450C569.17 450.084 568.816 450.126 568.516 450.126C568.06 450.126 567.706 450.024 567.454 449.82C567.214 449.616 567.064 449.346 567.004 449.01L566.95 448.488C566.53 449.04 566.02 449.46 565.42 449.748C564.82 450.036 564.178 450.18 563.494 450.18ZM564.178 448.416C564.586 448.416 564.97 448.344 565.33 448.2C565.702 448.056 565.99 447.864 566.194 447.624C566.458 447.42 566.59 447.192 566.59 446.94V445.86C566.302 445.752 565.99 445.668 565.654 445.608C565.318 445.536 564.994 445.5 564.682 445.5C564.058 445.5 563.548 445.644 563.152 445.932C562.756 446.208 562.558 446.562 562.558 446.994C562.558 447.402 562.714 447.744 563.026 448.02C563.338 448.284 563.722 448.416 564.178 448.416ZM576.872 442.656C576.14 442.668 575.486 442.812 574.91 443.088C574.334 443.352 573.92 443.754 573.668 444.294V450H571.256V440.568H573.47V442.584C573.638 442.26 573.836 441.972 574.064 441.72C574.292 441.456 574.538 441.228 574.802 441.036C575.066 440.844 575.33 440.7 575.594 440.604C575.87 440.496 576.134 440.442 576.386 440.442C576.518 440.442 576.614 440.442 576.674 440.442C576.746 440.442 576.812 440.448 576.872 440.46V442.656ZM582.117 450.18C581.361 450.18 580.677 450.054 580.065 449.802C579.453 449.538 578.931 449.184 578.499 448.74C578.067 448.296 577.731 447.78 577.491 447.192C577.263 446.604 577.149 445.986 577.149 445.338C577.149 444.666 577.263 444.036 577.491 443.448C577.719 442.848 578.049 442.326 578.481 441.882C578.913 441.426 579.435 441.066 580.047 440.802C580.671 440.538 581.367 440.406 582.135 440.406C582.903 440.406 583.587 440.538 584.187 440.802C584.799 441.066 585.315 441.42 585.735 441.864C586.167 442.308 586.491 442.824 586.707 443.412C586.935 444 587.049 444.612 587.049 445.248C587.049 445.404 587.043 445.554 587.031 445.698C587.031 445.842 587.019 445.962 586.995 446.058H579.705C579.741 446.43 579.831 446.76 579.975 447.048C580.119 447.336 580.305 447.582 580.533 447.786C580.761 447.99 581.019 448.146 581.307 448.254C581.595 448.362 581.895 448.416 582.207 448.416C582.687 448.416 583.137 448.302 583.557 448.074C583.989 447.834 584.283 447.522 584.439 447.138L586.509 447.714C586.161 448.434 585.603 449.028 584.835 449.496C584.079 449.952 583.173 450.18 582.117 450.18ZM584.565 444.492C584.505 443.784 584.241 443.22 583.773 442.8C583.317 442.368 582.759 442.152 582.099 442.152C581.775 442.152 581.469 442.212 581.181 442.332C580.905 442.44 580.659 442.596 580.443 442.8C580.227 443.004 580.047 443.25 579.903 443.538C579.771 443.826 579.693 444.144 579.669 444.492H584.565ZM588.662 443.268V440.676H590.624V443.268H588.662ZM588.662 450V447.408H590.624V450H588.662Z" fill="#BFBFBF"/>
<path id="OUR WEBSITE" d="M45.572 38.18C43.7 38.18 41.996 37.82 40.46 37.1C38.948 36.356 37.64 35.384 36.536 34.184C35.456 32.96 34.616 31.568 34.016 30.008C33.416 28.448 33.116 26.852 33.116 25.22C33.116 23.516 33.428 21.884 34.052 20.324C34.7 18.764 35.576 17.384 36.68 16.184C37.808 14.984 39.14 14.036 40.676 13.34C42.212 12.62 43.88 12.26 45.68 12.26C47.528 12.26 49.208 12.644 50.72 13.412C52.256 14.156 53.564 15.14 54.644 16.364C55.724 17.588 56.564 18.98 57.164 20.54C57.764 22.1 58.064 23.684 58.064 25.292C58.064 26.996 57.752 28.628 57.128 30.188C56.504 31.724 55.64 33.092 54.536 34.292C53.432 35.468 52.112 36.416 50.576 37.136C49.04 37.832 47.372 38.18 45.572 38.18ZM38.156 25.22C38.156 26.324 38.324 27.392 38.66 28.424C38.996 29.456 39.476 30.368 40.1 31.16C40.748 31.952 41.528 32.588 42.44 33.068C43.376 33.548 44.432 33.788 45.608 33.788C46.808 33.788 47.864 33.548 48.776 33.068C49.712 32.564 50.492 31.904 51.116 31.088C51.764 30.272 52.244 29.36 52.556 28.352C52.892 27.32 53.06 26.276 53.06 25.22C53.06 24.116 52.88 23.048 52.52 22.016C52.184 20.984 51.692 20.072 51.044 19.28C50.42 18.488 49.64 17.864 48.704 17.408C47.792 16.928 46.76 16.688 45.608 16.688C44.408 16.688 43.34 16.94 42.404 17.444C41.468 17.924 40.688 18.572 40.064 19.388C39.44 20.18 38.96 21.092 38.624 22.124C38.312 23.132 38.156 24.164 38.156 25.22ZM72.6749 33.788C73.8509 33.788 74.8349 33.548 75.6269 33.068C76.4429 32.588 77.0909 31.964 77.5709 31.196C78.0749 30.428 78.4229 29.552 78.6149 28.568C78.8309 27.56 78.9389 26.528 78.9389 25.472V12.44H83.8709V25.472C83.8709 27.224 83.6549 28.868 83.2229 30.404C82.8149 31.94 82.1549 33.284 81.2429 34.436C80.3549 35.588 79.2029 36.5 77.7869 37.172C76.3709 37.844 74.6789 38.18 72.7109 38.18C70.6709 38.18 68.9309 37.832 67.4909 37.136C66.0749 36.416 64.9229 35.48 64.0349 34.328C63.1469 33.152 62.4989 31.796 62.0909 30.26C61.7069 28.724 61.5149 27.128 61.5149 25.472V12.44H66.4829V25.472C66.4829 26.552 66.5789 27.596 66.7709 28.604C66.9869 29.588 67.3349 30.464 67.8149 31.232C68.3189 32 68.9669 32.624 69.7589 33.104C70.5509 33.56 71.5229 33.788 72.6749 33.788ZM88.8749 38V12.44H100.179C101.355 12.44 102.435 12.692 103.419 13.196C104.427 13.676 105.291 14.324 106.011 15.14C106.731 15.932 107.295 16.844 107.703 17.876C108.111 18.884 108.315 19.904 108.315 20.936C108.315 22.592 107.895 24.104 107.055 25.472C106.239 26.816 105.123 27.788 103.707 28.388L109.539 38H103.959L98.7389 29.432H93.8429V38H88.8749ZM93.8429 25.076H100.071C100.527 25.076 100.947 24.968 101.331 24.752C101.739 24.536 102.087 24.248 102.375 23.888C102.663 23.504 102.891 23.06 103.059 22.556C103.227 22.052 103.311 21.512 103.311 20.936C103.311 20.336 103.215 19.784 103.023 19.28C102.831 18.776 102.567 18.344 102.231 17.984C101.919 17.6 101.547 17.312 101.115 17.12C100.707 16.904 100.287 16.796 99.8549 16.796H93.8429V25.076ZM129.054 12.512H133.626L136.506 20.972L139.386 12.512H143.994L139.638 24.14L142.878 32.312L150.114 12.44H155.514L145.11 38H140.934L136.506 27.272L132.078 38H127.902L117.57 12.44H122.898L130.17 32.312L133.338 24.14L129.054 12.512ZM175.881 33.644V38H158.133V12.44H175.557V16.796H163.101V22.952H173.865V26.984H163.101V33.644H175.881ZM200.346 31.412C200.346 32.492 200.13 33.44 199.698 34.256C199.266 35.072 198.666 35.756 197.898 36.308C197.154 36.86 196.278 37.28 195.27 37.568C194.286 37.856 193.23 38 192.102 38H179.754V12.44H193.434C194.322 12.44 195.126 12.632 195.846 13.016C196.566 13.4 197.178 13.904 197.682 14.528C198.186 15.128 198.57 15.824 198.834 16.616C199.122 17.384 199.266 18.164 199.266 18.956C199.266 20.204 198.954 21.38 198.33 22.484C197.706 23.564 196.794 24.368 195.594 24.896C197.058 25.328 198.21 26.108 199.05 27.236C199.914 28.34 200.346 29.732 200.346 31.412ZM195.342 30.476C195.342 30.02 195.258 29.588 195.09 29.18C194.946 28.748 194.742 28.376 194.478 28.064C194.214 27.752 193.902 27.512 193.542 27.344C193.182 27.152 192.786 27.056 192.354 27.056H184.722V33.788H192.102C192.558 33.788 192.978 33.704 193.362 33.536C193.77 33.368 194.118 33.14 194.406 32.852C194.694 32.54 194.922 32.18 195.09 31.772C195.258 31.364 195.342 30.932 195.342 30.476ZM184.722 16.688V23.132H191.346C192.186 23.132 192.894 22.844 193.47 22.268C194.07 21.692 194.37 20.9 194.37 19.892C194.37 18.908 194.094 18.128 193.542 17.552C193.014 16.976 192.354 16.688 191.562 16.688H184.722ZM219.451 19.136C219.283 18.968 218.971 18.74 218.515 18.452C218.083 18.164 217.543 17.888 216.895 17.624C216.271 17.336 215.587 17.096 214.843 16.904C214.099 16.712 213.343 16.616 212.575 16.616C211.207 16.616 210.187 16.868 209.515 17.372C208.843 17.876 208.507 18.584 208.507 19.496C208.507 20.024 208.627 20.468 208.867 20.828C209.131 21.164 209.503 21.464 209.983 21.728C210.463 21.992 211.063 22.232 211.783 22.448C212.527 22.664 213.379 22.892 214.339 23.132C215.587 23.468 216.715 23.828 217.723 24.212C218.755 24.596 219.619 25.076 220.315 25.652C221.035 26.228 221.587 26.924 221.971 27.74C222.355 28.532 222.547 29.516 222.547 30.692C222.547 32.06 222.283 33.236 221.755 34.22C221.251 35.18 220.555 35.96 219.667 36.56C218.803 37.16 217.795 37.604 216.643 37.892C215.515 38.156 214.327 38.288 213.079 38.288C211.159 38.288 209.263 38 207.391 37.424C205.519 36.848 203.839 36.032 202.351 34.976L204.547 30.692C204.763 30.908 205.147 31.196 205.699 31.556C206.275 31.892 206.947 32.24 207.715 32.6C208.483 32.936 209.335 33.224 210.271 33.464C211.207 33.704 212.167 33.824 213.151 33.824C215.887 33.824 217.255 32.948 217.255 31.196C217.255 30.644 217.099 30.176 216.787 29.792C216.475 29.408 216.031 29.072 215.455 28.784C214.879 28.496 214.183 28.232 213.367 27.992C212.551 27.752 211.639 27.488 210.631 27.2C209.407 26.864 208.339 26.504 207.427 26.12C206.539 25.712 205.795 25.244 205.195 24.716C204.595 24.164 204.139 23.54 203.827 22.844C203.539 22.124 203.395 21.272 203.395 20.288C203.395 18.992 203.635 17.84 204.115 16.832C204.595 15.824 205.255 14.984 206.095 14.312C206.959 13.64 207.955 13.136 209.083 12.8C210.211 12.44 211.423 12.26 212.719 12.26C214.519 12.26 216.175 12.548 217.687 13.124C219.199 13.676 220.519 14.336 221.647 15.104L219.451 19.136ZM226.301 38V12.44H231.269V38H226.301ZM255.718 16.796H247.546V38H242.614V16.796H234.442V12.44H255.718V16.796ZM276.639 33.644V38H258.891V12.44H276.315V16.796H263.859V22.952H274.623V26.984H263.859V33.644H276.639Z" fill="#BFBFBF"/>
<path id="Home | Contact | About" d="M649.846 16.96V34H646.558V26.728H638.83V34H635.518V16.96H638.83V23.848H646.558V16.96H649.846ZM658.733 34.24C657.709 34.24 656.789 34.064 655.973 33.712C655.157 33.36 654.461 32.888 653.885 32.296C653.325 31.688 652.893 30.992 652.589 30.208C652.285 29.424 652.133 28.6 652.133 27.736C652.133 26.856 652.285 26.024 652.589 25.24C652.893 24.456 653.325 23.768 653.885 23.176C654.461 22.568 655.157 22.088 655.973 21.736C656.789 21.384 657.709 21.208 658.733 21.208C659.757 21.208 660.669 21.384 661.469 21.736C662.285 22.088 662.973 22.568 663.533 23.176C664.109 23.768 664.549 24.456 664.853 25.24C665.157 26.024 665.309 26.856 665.309 27.736C665.309 28.6 665.157 29.424 664.853 30.208C664.549 30.992 664.117 31.688 663.557 32.296C662.997 32.888 662.309 33.36 661.493 33.712C660.677 34.064 659.757 34.24 658.733 34.24ZM655.445 27.736C655.445 28.296 655.525 28.808 655.685 29.272C655.861 29.72 656.093 30.112 656.381 30.448C656.685 30.784 657.037 31.048 657.437 31.24C657.837 31.416 658.269 31.504 658.733 31.504C659.197 31.504 659.629 31.416 660.029 31.24C660.429 31.048 660.773 30.784 661.061 30.448C661.365 30.112 661.597 29.712 661.757 29.248C661.933 28.784 662.021 28.272 662.021 27.712C662.021 27.168 661.933 26.664 661.757 26.2C661.597 25.736 661.365 25.336 661.061 25C660.773 24.664 660.429 24.408 660.029 24.232C659.629 24.04 659.197 23.944 658.733 23.944C658.269 23.944 657.837 24.04 657.437 24.232C657.037 24.424 656.685 24.688 656.381 25.024C656.093 25.36 655.861 25.76 655.685 26.224C655.525 26.688 655.445 27.192 655.445 27.736ZM687.016 34H683.8V26.944C683.8 25.936 683.624 25.2 683.272 24.736C682.936 24.272 682.464 24.04 681.856 24.04C681.216 24.04 680.616 24.288 680.056 24.784C679.496 25.264 679.096 25.896 678.856 26.68V34H675.64V26.944C675.64 25.936 675.464 25.2 675.112 24.736C674.776 24.272 674.304 24.04 673.696 24.04C673.072 24.04 672.472 24.28 671.896 24.76C671.336 25.24 670.936 25.872 670.696 26.656V34H667.48V21.424H670.384V23.752C670.848 22.936 671.48 22.312 672.28 21.88C673.096 21.432 674.024 21.208 675.064 21.208C676.12 21.208 676.936 21.464 677.512 21.976C678.088 22.488 678.456 23.12 678.616 23.872C679.128 23.008 679.776 22.352 680.56 21.904C681.344 21.44 682.24 21.208 683.248 21.208C684.016 21.208 684.648 21.352 685.144 21.64C685.64 21.928 686.024 22.304 686.296 22.768C686.568 23.232 686.752 23.76 686.848 24.352C686.96 24.944 687.016 25.544 687.016 26.152V34ZM695.648 34.24C694.64 34.24 693.728 34.072 692.912 33.736C692.096 33.384 691.4 32.912 690.824 32.32C690.248 31.728 689.8 31.04 689.48 30.256C689.176 29.472 689.024 28.648 689.024 27.784C689.024 26.888 689.176 26.048 689.48 25.264C689.784 24.464 690.224 23.768 690.8 23.176C691.376 22.568 692.072 22.088 692.888 21.736C693.72 21.384 694.648 21.208 695.672 21.208C696.696 21.208 697.608 21.384 698.408 21.736C699.224 22.088 699.912 22.56 700.472 23.152C701.048 23.744 701.48 24.432 701.768 25.216C702.072 26 702.224 26.816 702.224 27.664C702.224 27.872 702.216 28.072 702.2 28.264C702.2 28.456 702.184 28.616 702.152 28.744H692.432C692.48 29.24 692.6 29.68 692.792 30.064C692.984 30.448 693.232 30.776 693.536 31.048C693.84 31.32 694.184 31.528 694.568 31.672C694.952 31.816 695.352 31.888 695.768 31.888C696.408 31.888 697.008 31.736 697.568 31.432C698.144 31.112 698.536 30.696 698.744 30.184L701.504 30.952C701.04 31.912 700.296 32.704 699.272 33.328C698.264 33.936 697.056 34.24 695.648 34.24ZM698.912 26.656C698.832 25.712 698.48 24.96 697.856 24.4C697.248 23.824 696.504 23.536 695.624 23.536C695.192 23.536 694.784 23.616 694.4 23.776C694.032 23.92 693.704 24.128 693.416 24.4C693.128 24.672 692.888 25 692.696 25.384C692.52 25.768 692.416 26.192 692.384 26.656H698.912ZM716.146 37.12V15.4H718.882V37.12H716.146ZM733.064 25.36C733.064 24.32 733.248 23.296 733.616 22.288C734 21.264 734.552 20.352 735.272 19.552C735.992 18.752 736.872 18.104 737.912 17.608C738.952 17.112 740.136 16.864 741.464 16.864C743.032 16.864 744.384 17.208 745.52 17.896C746.672 18.584 747.528 19.48 748.088 20.584L745.544 22.336C745.32 21.856 745.048 21.456 744.728 21.136C744.408 20.8 744.064 20.536 743.696 20.344C743.328 20.152 742.944 20.016 742.544 19.936C742.144 19.84 741.752 19.792 741.368 19.792C740.536 19.792 739.808 19.96 739.184 20.296C738.576 20.632 738.064 21.072 737.648 21.616C737.248 22.144 736.944 22.752 736.736 23.44C736.528 24.112 736.424 24.784 736.424 25.456C736.424 26.208 736.544 26.936 736.784 27.64C737.024 28.328 737.36 28.936 737.792 29.464C738.24 29.992 738.768 30.416 739.376 30.736C740 31.056 740.68 31.216 741.416 31.216C741.8 31.216 742.2 31.168 742.616 31.072C743.032 30.976 743.424 30.824 743.792 30.616C744.176 30.408 744.528 30.144 744.848 29.824C745.168 29.488 745.424 29.088 745.616 28.624L748.328 30.184C748.056 30.824 747.664 31.392 747.152 31.888C746.656 32.368 746.088 32.776 745.448 33.112C744.824 33.448 744.152 33.704 743.432 33.88C742.712 34.056 742.008 34.144 741.32 34.144C740.104 34.144 738.992 33.888 737.984 33.376C736.976 32.864 736.104 32.2 735.368 31.384C734.648 30.552 734.08 29.616 733.664 28.576C733.264 27.52 733.064 26.448 733.064 25.36ZM756.045 34.24C755.021 34.24 754.101 34.064 753.285 33.712C752.469 33.36 751.773 32.888 751.197 32.296C750.637 31.688 750.205 30.992 749.901 30.208C749.597 29.424 749.445 28.6 749.445 27.736C749.445 26.856 749.597 26.024 749.901 25.24C750.205 24.456 750.637 23.768 751.197 23.176C751.773 22.568 752.469 22.088 753.285 21.736C754.101 21.384 755.021 21.208 756.045 21.208C757.069 21.208 757.981 21.384 758.781 21.736C759.597 22.088 760.285 22.568 760.845 23.176C761.421 23.768 761.861 24.456 762.165 25.24C762.469 26.024 762.621 26.856 762.621 27.736C762.621 28.6 762.469 29.424 762.165 30.208C761.861 30.992 761.429 31.688 760.869 32.296C760.309 32.888 759.621 33.36 758.805 33.712C757.989 34.064 757.069 34.24 756.045 34.24ZM752.757 27.736C752.757 28.296 752.837 28.808 752.997 29.272C753.173 29.72 753.405 30.112 753.693 30.448C753.997 30.784 754.349 31.048 754.749 31.24C755.149 31.416 755.581 31.504 756.045 31.504C756.509 31.504 756.941 31.416 757.341 31.24C757.741 31.048 758.085 30.784 758.373 30.448C758.677 30.112 758.909 29.712 759.069 29.248C759.245 28.784 759.333 28.272 759.333 27.712C759.333 27.168 759.245 26.664 759.069 26.2C758.909 25.736 758.677 25.336 758.373 25C758.085 24.664 757.741 24.408 757.341 24.232C756.941 24.04 756.509 23.944 756.045 23.944C755.581 23.944 755.149 24.04 754.749 24.232C754.349 24.424 753.997 24.688 753.693 25.024C753.405 25.36 753.173 25.76 752.997 26.224C752.837 26.688 752.757 27.192 752.757 27.736ZM776.48 34H773.264V26.944C773.264 25.936 773.088 25.2 772.736 24.736C772.384 24.272 771.896 24.04 771.272 24.04C770.952 24.04 770.624 24.104 770.288 24.232C769.952 24.36 769.632 24.544 769.328 24.784C769.04 25.008 768.776 25.28 768.536 25.6C768.296 25.92 768.12 26.272 768.008 26.656V34H764.792V21.424H767.696V23.752C768.16 22.952 768.832 22.328 769.712 21.88C770.592 21.432 771.584 21.208 772.688 21.208C773.472 21.208 774.112 21.352 774.608 21.64C775.104 21.928 775.488 22.304 775.76 22.768C776.032 23.232 776.216 23.76 776.312 24.352C776.424 24.944 776.48 25.544 776.48 26.152V34ZM786.695 33.352C786.263 33.544 785.735 33.736 785.111 33.928C784.487 34.12 783.831 34.216 783.143 34.216C782.695 34.216 782.271 34.16 781.871 34.048C781.487 33.936 781.143 33.76 780.839 33.52C780.551 33.264 780.319 32.944 780.143 32.56C779.967 32.16 779.879 31.68 779.879 31.12V23.896H778.223V21.424H779.879V17.344H783.095V21.424H785.735V23.896H783.095V30.04C783.095 30.488 783.207 30.808 783.431 31C783.671 31.176 783.959 31.264 784.295 31.264C784.631 31.264 784.959 31.208 785.279 31.096C785.599 30.984 785.855 30.888 786.047 30.808L786.695 33.352ZM791.802 34.24C791.194 34.24 790.626 34.144 790.098 33.952C789.57 33.744 789.114 33.464 788.73 33.112C788.346 32.744 788.042 32.32 787.818 31.84C787.61 31.36 787.506 30.832 787.506 30.256C787.506 29.664 787.634 29.12 787.89 28.624C788.162 28.112 788.53 27.68 788.994 27.328C789.474 26.976 790.042 26.704 790.698 26.512C791.354 26.304 792.074 26.2 792.858 26.2C793.418 26.2 793.962 26.248 794.49 26.344C795.034 26.44 795.514 26.576 795.93 26.752V26.032C795.93 25.2 795.69 24.56 795.21 24.112C794.746 23.664 794.05 23.44 793.122 23.44C792.45 23.44 791.794 23.56 791.154 23.8C790.514 24.04 789.858 24.392 789.186 24.856L788.202 22.816C789.818 21.744 791.562 21.208 793.434 21.208C795.242 21.208 796.642 21.656 797.634 22.552C798.642 23.432 799.146 24.712 799.146 26.392V30.304C799.146 30.64 799.202 30.88 799.314 31.024C799.442 31.168 799.642 31.248 799.914 31.264V34C799.37 34.112 798.898 34.168 798.498 34.168C797.89 34.168 797.418 34.032 797.082 33.76C796.762 33.488 796.562 33.128 796.482 32.68L796.41 31.984C795.85 32.72 795.17 33.28 794.37 33.664C793.57 34.048 792.714 34.24 791.802 34.24ZM792.714 31.888C793.258 31.888 793.77 31.792 794.25 31.6C794.746 31.408 795.13 31.152 795.402 30.832C795.754 30.56 795.93 30.256 795.93 29.92V28.48C795.546 28.336 795.13 28.224 794.682 28.144C794.234 28.048 793.802 28 793.386 28C792.554 28 791.874 28.192 791.346 28.576C790.818 28.944 790.554 29.416 790.554 29.992C790.554 30.536 790.762 30.992 791.178 31.36C791.594 31.712 792.106 31.888 792.714 31.888ZM801.36 27.712C801.36 26.832 801.512 26 801.816 25.216C802.12 24.432 802.56 23.744 803.136 23.152C803.712 22.56 804.408 22.088 805.224 21.736C806.04 21.384 806.96 21.208 807.984 21.208C809.36 21.208 810.528 21.504 811.488 22.096C812.464 22.688 813.192 23.464 813.672 24.424L810.528 25.384C810.256 24.92 809.896 24.568 809.448 24.328C809 24.072 808.504 23.944 807.96 23.944C807.496 23.944 807.064 24.04 806.664 24.232C806.264 24.408 805.912 24.664 805.608 25C805.32 25.32 805.088 25.712 804.912 26.176C804.752 26.64 804.672 27.152 804.672 27.712C804.672 28.272 804.76 28.784 804.936 29.248C805.112 29.712 805.344 30.112 805.632 30.448C805.936 30.784 806.288 31.048 806.688 31.24C807.088 31.416 807.512 31.504 807.96 31.504C808.536 31.504 809.064 31.36 809.544 31.072C810.04 30.784 810.384 30.432 810.576 30.016L813.72 30.976C813.288 31.936 812.576 32.72 811.584 33.328C810.592 33.936 809.4 34.24 808.008 34.24C806.984 34.24 806.064 34.064 805.248 33.712C804.432 33.36 803.736 32.888 803.16 32.296C802.584 31.688 802.136 30.992 801.816 30.208C801.512 29.408 801.36 28.576 801.36 27.712ZM823.234 33.352C822.802 33.544 822.274 33.736 821.65 33.928C821.026 34.12 820.37 34.216 819.682 34.216C819.234 34.216 818.81 34.16 818.41 34.048C818.026 33.936 817.682 33.76 817.378 33.52C817.09 33.264 816.858 32.944 816.682 32.56C816.506 32.16 816.418 31.68 816.418 31.12V23.896H814.762V21.424H816.418V17.344H819.634V21.424H822.274V23.896H819.634V30.04C819.634 30.488 819.746 30.808 819.97 31C820.21 31.176 820.498 31.264 820.834 31.264C821.17 31.264 821.498 31.208 821.818 31.096C822.138 30.984 822.394 30.888 822.586 30.808L823.234 33.352ZM836.873 37.12V15.4H839.609V37.12H836.873ZM864.687 16.96H867.615L874.095 34H870.687L869.103 29.752H863.151L861.59 34H858.183L864.687 16.96ZM868.503 27.424L866.151 20.728L863.703 27.424H868.503ZM882.804 34.24C881.844 34.24 880.988 34.024 880.236 33.592C879.484 33.16 878.892 32.568 878.46 31.816V34H875.652V16.48H878.868V23.632C879.316 22.864 879.9 22.272 880.62 21.856C881.356 21.424 882.212 21.208 883.188 21.208C884.004 21.208 884.748 21.384 885.42 21.736C886.092 22.088 886.668 22.56 887.148 23.152C887.644 23.744 888.02 24.44 888.276 25.24C888.548 26.04 888.684 26.88 888.684 27.76C888.684 28.672 888.532 29.52 888.228 30.304C887.94 31.088 887.532 31.776 887.004 32.368C886.476 32.944 885.852 33.4 885.132 33.736C884.412 34.072 883.636 34.24 882.804 34.24ZM881.916 31.504C882.428 31.504 882.9 31.408 883.332 31.216C883.764 31.008 884.132 30.736 884.436 30.4C884.74 30.064 884.972 29.672 885.132 29.224C885.308 28.776 885.396 28.296 885.396 27.784C885.396 27.272 885.316 26.784 885.156 26.32C884.996 25.856 884.764 25.448 884.46 25.096C884.172 24.744 883.828 24.464 883.428 24.256C883.028 24.048 882.588 23.944 882.108 23.944C881.388 23.944 880.74 24.184 880.164 24.664C879.604 25.128 879.172 25.704 878.868 26.392V29.392C878.98 29.712 879.14 30 879.348 30.256C879.572 30.512 879.82 30.736 880.092 30.928C880.364 31.104 880.66 31.248 880.98 31.36C881.3 31.456 881.612 31.504 881.916 31.504ZM896.67 34.24C895.646 34.24 894.726 34.064 893.91 33.712C893.094 33.36 892.398 32.888 891.822 32.296C891.262 31.688 890.83 30.992 890.526 30.208C890.222 29.424 890.07 28.6 890.07 27.736C890.07 26.856 890.222 26.024 890.526 25.24C890.83 24.456 891.262 23.768 891.822 23.176C892.398 22.568 893.094 22.088 893.91 21.736C894.726 21.384 895.646 21.208 896.67 21.208C897.694 21.208 898.606 21.384 899.406 21.736C900.222 22.088 900.91 22.568 901.47 23.176C902.046 23.768 902.486 24.456 902.79 25.24C903.094 26.024 903.246 26.856 903.246 27.736C903.246 28.6 903.094 29.424 902.79 30.208C902.486 30.992 902.054 31.688 901.494 32.296C900.934 32.888 900.246 33.36 899.43 33.712C898.614 34.064 897.694 34.24 896.67 34.24ZM893.382 27.736C893.382 28.296 893.462 28.808 893.622 29.272C893.798 29.72 894.03 30.112 894.318 30.448C894.622 30.784 894.974 31.048 895.374 31.24C895.774 31.416 896.206 31.504 896.67 31.504C897.134 31.504 897.566 31.416 897.966 31.24C898.366 31.048 898.71 30.784 898.998 30.448C899.302 30.112 899.534 29.712 899.694 29.248C899.87 28.784 899.958 28.272 899.958 27.712C899.958 27.168 899.87 26.664 899.694 26.2C899.534 25.736 899.302 25.336 898.998 25C898.71 24.664 898.366 24.408 897.966 24.232C897.566 24.04 897.134 23.944 896.67 23.944C896.206 23.944 895.774 24.04 895.374 24.232C894.974 24.424 894.622 24.688 894.318 25.024C894.03 25.36 893.798 25.76 893.622 26.224C893.462 26.688 893.382 27.192 893.382 27.736ZM909.257 34.24C907.961 34.24 906.977 33.824 906.305 32.992C905.633 32.16 905.297 30.928 905.297 29.296V21.424H908.513V28.6C908.513 30.536 909.209 31.504 910.601 31.504C911.225 31.504 911.825 31.32 912.401 30.952C912.993 30.568 913.473 29.992 913.841 29.224V21.424H917.057V30.304C917.057 30.64 917.113 30.88 917.225 31.024C917.353 31.168 917.553 31.248 917.825 31.264V34C917.505 34.064 917.233 34.104 917.009 34.12C916.801 34.136 916.609 34.144 916.433 34.144C915.857 34.144 915.385 34.016 915.017 33.76C914.665 33.488 914.457 33.12 914.393 32.656L914.321 31.648C913.761 32.512 913.041 33.16 912.161 33.592C911.281 34.024 910.313 34.24 909.257 34.24ZM927.789 33.352C927.357 33.544 926.829 33.736 926.205 33.928C925.581 34.12 924.925 34.216 924.237 34.216C923.789 34.216 923.365 34.16 922.965 34.048C922.581 33.936 922.237 33.76 921.933 33.52C921.645 33.264 921.413 32.944 921.237 32.56C921.061 32.16 920.973 31.68 920.973 31.12V23.896H919.317V21.424H920.973V17.344H924.189V21.424H926.829V23.896H924.189V30.04C924.189 30.488 924.301 30.808 924.525 31C924.765 31.176 925.053 31.264 925.389 31.264C925.725 31.264 926.053 31.208 926.373 31.096C926.693 30.984 926.949 30.888 927.141 30.808L927.789 33.352Z" fill="#BFBFBF"/>
<path id="Rectangle" d="M32 521H290M32 521V732M32 521L290 732M290 521V732M290 521L32 732M290 732H32" stroke="#BFBFBF" stroke-width="3"/>
<path id="Rectangle_2" d="M351 521H609M351 521V732M351 521L609 732M609 521V732M609 521L351 732M609 732H351" stroke="#BFBFBF" stroke-width="3"/>
<path id="Rectangle_3" d="M32 93H928M32 93V391M32 93L928 391M928 93V391M928 93L32 391M928 391H32" stroke="#BFBFBF" stroke-width="3"/>
<path id="Rectangle_4" d="M670 521H928M670 521V732M670 521L928 732M928 521V732M928 521L670 732M928 732H670" stroke="#BFBFBF" stroke-width="3"/>
</g>
<defs>
<clipPath id="clip0">
<rect width="960" height="732" fill="white"/>
</clipPath>
</defs>
</svg>
